<?xml version="1.0" encoding="UTF-8" standalone="no"?>
<!-- Created with Inkscape (http://www.inkscape.org/) -->
<svg id="svg2" xmlns:rdf="http://www.w3.org/1999/02/22-rdf-syntax-ns#" xmlns="http://www.w3.org/2000/svg" xml:space="preserve" height="240" viewBox="0 0 960 240" width="960" version="1.1" xmlns:cc="http://creativecommons.org/ns#" xmlns:xlink="http://www.w3.org/1999/xlink" xmlns:dc="http://purl.org/dc/elements/1.1/"><metadata id="metadata8"><rdf:RDF><cc:Work rdf:about=""><dc:format>image/svg+xml</dc:format><dc:type rdf:resource="http://purl.org/dc/dcmitype/StillImage"/><dc:title/></cc:Work></rdf:RDF></metadata><defs id="defs6"><filter id="filter6072" style="color-interpolation-filters:sRGB"><feFlood id="feFlood6074" result="flood" flood-opacity=".25098" flood-color="rgb(0,0,0)"/><feComposite id="feComposite6076" operator="in" result="composite1" in2="SourceGraphic" in="flood"/><feGaussianBlur id="feGaussianBlur6078" stdDeviation="3" result="blur" in="composite1"/><feOffset id="feOffset6080" result="offset" dx="4" dy="4"/><feComposite id="feComposite6082" operator="over" result="composite2" in2="offset" in="SourceGraphic"/></filter></defs><g id="g10" transform="matrix(1.25,0,0,-1.25,0,240)"><g id="g134" filter="url(#filter6072)" transform="matrix(0 1 -1 0 -11.517 143.74)"><path id="path136" d="m0 0-0.462-0.236-0.728 0.211-0.15 0.025h-1.731l-0.31-0.143-0.73-0.1-0.266 0.243h-0.95l-0.242-0.209-0.236 0.209h-0.931l-0.286-0.283-0.727-0.001-0.603 0.284h-0.207l-0.646-0.472-0.597 0.472h-1.246l-0.326-0.296-0.56 0.296h-0.348l-0.545-0.265-0.266 0.265h-1.471l-0.446-0.459-0.726 0.343-0.475 0.116h-0.351l-0.626-0.38-0.725 0.115-0.726-0.07-0.729 0.024-0.727 0.1-0.35 0.211h-0.87l-0.229-0.104-0.155 0.104h-2.417l-0.326-0.316-0.724 0.303-0.725-0.143-0.253 0.156h-0.8l-0.401-0.36-0.725 0.229-0.724-0.053-0.724 0.038-0.643 0.146h-0.154l-0.647-0.155-0.333 0.155h-1.363l-0.469-0.336-0.298 0.336h-0.91l-0.234-0.229-0.722-0.138-0.587 0.367h-1.262l-0.32-0.378-0.725-0.103-0.725-0.014-0.375 0.495h-1.706l-0.092-0.061-0.143 0.061h-0.932l-0.368-0.257-0.287 0.257h-0.846l-0.307-0.29-0.375 0.29h-1.472l-0.32-0.298-0.725 0.159-0.29 0.139h-1.907l-0.704-0.342-0.723 0.155-0.38 0.187h-1.314l-0.477-0.365-0.69 0.365h-1.295l-0.185-0.124-0.723-0.281-0.722 0.007-0.335 0.398h-1.023l-0.089-0.065-0.416 0.065h-0.41l-0.621-0.288-0.724 0.14-0.199 0.148h-2.367l-0.333-0.106-0.724 0.071h-0.724l-0.723-0.392-0.724 0.414-0.722-0.203-0.723 0.181-0.722 0.024-0.722-0.354-0.358 0.365h-1.054l-0.032-0.017-0.381 0.017h-1.317l-0.467-0.489-0.722 0.336-0.723-0.238-0.722 0.387-0.044 0.004h-4.486l-0.529-0.465-0.52 0.465h-1.876l-0.502-0.333-0.306 0.333h-0.975l-0.165-0.134-0.723-0.049-0.224 0.183h-1.434l-0.509-0.395-0.721 0.155-0.5 0.24h-1.817l-0.567-0.34-0.72-0.145-0.721 0.155-0.721-0.068-0.721-0.018-0.719 0.147-0.291 0.269h-3.968l-0.063-0.029-0.349 0.029h-0.467l-0.624-0.199-0.721-0.26-0.721 0.022-0.721 0.284-0.72-0.104-0.72 0.048-0.228 0.209h-0.978l-0.238-0.223-0.429 0.223h-0.803l-0.212-0.063-0.16 0.063h-1.261l-0.023-0.007-0.723-0.33-0.342 0.337h-2.933l-0.341-0.413-0.395 0.413h-1.038l-0.012-0.005-0.722-0.045-0.114 0.05h-1.647l-0.404-0.475-0.559 0.475h-0.366l-0.516-0.346-0.384 0.346h-0.94l-0.117-0.058-0.72-0.263-0.362 0.321h-0.897l-0.18-0.105-0.719-0.293-0.718 0.218-0.396 0.18h-0.518l-0.523-0.394-0.59 0.394h-1.103l-0.463-0.287-0.718 0.06-0.718 0.041-0.718-0.286-0.718 0.207-0.717-0.199-0.431 0.464h-0.793l-0.211-0.129-0.718 0.018-0.717-0.283-0.717-0.009-0.352 0.403h-0.768l-0.316-0.329-0.298 0.329h-0.855l-0.281-0.298-0.605 0.298h-0.185l-0.645-0.497-0.62 0.497h-0.245l-0.571-0.303-0.455 0.303h-0.658l-0.322-0.142-0.717-0.102-0.325 0.244h-0.932l-0.18-0.099-0.718-0.341-0.5 0.44h-3.63l-0.18-0.11-0.164 0.11h-0.931l-0.343-0.339-0.53 0.339h-2.515l-0.554-0.202-0.659 0.202h-0.099l-0.682-0.341-0.346 0.341h-0.773l-0.323-0.302-0.722-0.008-0.722 0.216-0.139 0.094h-3.093l-0.378-0.276-0.721-0.214-0.686 0.49h-0.235l-0.521-0.066-0.72-0.318-0.721 0.25-0.191 0.134h-0.895l-0.354-0.361-0.719 0.188-0.719-0.192-0.541 0.365h-1.753l-0.58-0.48-0.718 0.265-0.718-0.153-0.717-0.007-0.717 0.373-0.72-0.227-0.41 0.229h-0.784l-0.247-0.091-0.72-0.006-0.72 0.009-0.158 0.088h-0.968l-0.315-0.243-0.295 0.243h-0.786l-0.359-0.347-0.708 0.347h-0.023l-0.71-0.421-0.721 0.005-0.72 0.236-0.72-0.207-0.721-0.05-0.72 0.307-0.158 0.13h-0.983l-0.3-0.331-0.37 0.331h-1.023l-0.048-0.022-0.721-0.253-0.721-0.218-0.515 0.493h-3.431l-0.38-0.12-0.722-0.047-0.722 0.007-0.722 0.039-0.203 0.121h-0.833l-0.407-0.399-0.722 0.343-0.344 0.056h-0.485l-0.615-0.352-0.386 0.352h-0.751l-0.306-0.225-0.331 0.225h-0.98l-0.131-0.058-0.72-0.355-0.722 0.38-0.72-0.15-0.721 0.163-0.038 0.02h-1.209l-0.194-0.129-0.72 0.063-0.721-0.166-0.72 0.23-0.72-0.213-0.462 0.215h-2.173l-0.245-0.224-0.64 0.224h-3.704l-0.693-0.376-0.72-0.068-0.719 0.423-0.039 0.021h-1.05l-0.35-0.342-0.72-0.049-0.608 0.391h-0.267l-0.563-0.26-0.607 0.26h-0.2l-0.633-0.355-0.342 0.355h-1.395l-0.421-0.373-0.481 0.373h-4.831l-0.444-0.353-0.72 0.198-0.72 0.138-0.086 0.017h-2.724l-0.069-0.04-0.72-0.304-0.508 0.344h-0.815l-0.117-0.028-0.721-0.417-0.366 0.445h-1.786l-0.009-0.004-0.721-0.236-0.72 0.114-0.721 0.1-0.056 0.026h-1.798l-0.309-0.211-0.72-0.267-0.529 0.478h-0.692l-0.223-0.078-0.721-0.414-0.722 0.433-0.155 0.059h-0.904l-0.383-0.245-0.373 0.245h-0.631l-0.439-0.357-0.404 0.357h-1.386l-0.373-0.36-0.317 0.36h-0.776l-0.349-0.43-0.72 0.063-0.351 0.367h-0.97l-0.12-0.077-0.72-0.047-0.72 0.04-0.72-0.386-0.428 0.47h-2.033l-0.419-0.454-0.357 0.454h-2.468l-0.052-0.026-0.719-0.362-0.384 0.388h-0.798l-0.256-0.188-0.268 0.188h-0.787l-0.383-0.362-0.408 0.362h-0.862l-0.169-0.085-0.169 0.085h-0.908l-0.36-0.277-0.719 0.05-0.718-0.217-0.719 0.361-0.719-0.205-0.446 0.288h-0.493l-0.498-0.399-0.719 0.26-0.718-0.35-0.718 0.323-0.719-0.252-0.582 0.418h-0.259l-0.596-0.477-0.718 0.006-0.596 0.471h-0.241l-0.6-0.494-0.718 0.073-0.564 0.421h-0.332l-0.541-0.351-0.718 0.036-0.343 0.315h-2.792l-0.456-0.329-0.486 0.329h-0.423l-0.527-0.436-0.719 0.181-0.719 0.094-0.718-0.321-0.718 0.199-0.718-0.144-0.487 0.427h-0.535l-0.415-0.277-0.719-0.109-0.363 0.386h-2.347l-0.164-0.134-0.384 0.134h-0.755l-0.298-0.082-0.719-0.246-0.525 0.328h-3.033l-0.036-0.012-0.719-0.196-0.719-0.133-0.299 0.341h-1.988l-0.589-0.348-0.719 0.003-0.719 0.104-0.25 0.241h-5.307l-0.202-0.048-0.72-0.137-0.72-0.175-0.577 0.36h-1.353l-0.231-0.204-0.72 0.155-0.196 0.049h-2.103l-0.584-0.18-0.29 0.18h-2.956l-0.359-0.48-0.414 0.48h-3.578l-0.33-0.145-0.72-0.226-0.417 0.371h-1.898l-0.564-0.419-0.72 0.169-0.358 0.25h-0.613l-0.468-0.464-0.719 0.39-0.719 0.043-0.719-0.442-0.719 0.289-0.26 0.184h-2.904l-0.43-0.384-0.718 0.256-0.718 0.085-0.718-0.27-0.32 0.313h-1.066l-0.052-0.031-0.268 0.031h-1.618l-0.267-0.146-0.719-0.238-0.438 0.384h-3.034l-0.116-0.058-0.343 0.058h-1.169l-0.641-0.47-0.717 0.275-0.717 0.113-0.718-0.138-0.364 0.22h-0.834l-0.236-0.104-0.196 0.104h-1.572l-0.384-0.408-0.717 0.034-0.717 0.181-0.717-0.227-0.717 0.372-0.106 0.048h-0.995l-0.333-0.238-0.395 0.238h-2.005l-0.467-0.5-0.717 0.337-0.266 0.163h-1.03l-0.138-0.066-0.716-0.332-0.644 0.398h-1.478l-0.028-0.015-0.716-0.28-0.718 0.044-0.26 0.251h-1.554l-0.335-0.351-0.423 0.351h-0.56l-0.451-0.411-0.716 0.379-0.445 0.032h-1.251l-0.454-0.16-0.334 0.16h-0.644l-0.454-0.317-0.717 0.27-0.144 0.047h-0.859l-0.43-0.281-0.289 0.281h-0.88l-0.264-0.242-0.333 0.242h-2.781l-0.469-0.497-0.716 0.043-0.41 0.454h-1.537l-0.203-0.156-0.204 0.156h-1.04l-0.19-0.141-0.191 0.141h-7.231l-0.463-0.464-0.716 0.444-0.718-0.209-0.717 0.095-0.717 0.056-0.718-0.216-0.716 0.115-0.717-0.221-0.718-0.043-0.717 0.124-0.407 0.319h-0.621l-0.406-0.319-0.719 0.055-0.285 0.264h-1.036l-0.113-0.075-0.62 0.075h-3.373l-0.313-0.378-0.338 0.378h-0.834l-0.264-0.248-0.718-0.107-0.718 0.086-0.718-0.072-0.718-0.022-0.704 0.363h-1.86l-0.31-0.208-0.718 0.2-0.719-0.396-0.718 0.171-0.509 0.233h-0.377l-0.552-0.317-0.718 0.018-0.423 0.299h-0.538l-0.477-0.41-0.395 0.41h-3.148l-0.053-0.036-0.087 0.036h-1.519l-0.552-0.175-0.72-0.002-0.517 0.177h-0.303l-0.62-0.429-0.72 0.364-0.191 0.065h-0.753l-0.496-0.393-0.72 0.011-0.72-0.089-0.541 0.471h-0.493l-0.406-0.201-0.72 0.164-0.399 0.037h-2.066l-0.414-0.256-0.267 0.256h-1.066l-0.106-0.075-0.719-0.412-0.719 0.24-0.281 0.247h-0.945l-0.212-0.161-0.719 0.055-0.72 0.066-0.061 0.04h-1.007l-0.369-0.442-0.718 0.313-0.188 0.129h-1.023l-0.226-0.167-0.466 0.167h-0.798l-0.173-0.029-0.718-0.181-0.447 0.21h-0.65l-0.339-0.113-0.508 0.113h-0.308l-0.62-0.293-0.717-0.157-0.661 0.45h-0.945l-0.547-0.341-0.717-0.01-0.358 0.351h-0.856l-0.221-0.157-0.195 0.157h-1.564l-0.393-0.397-0.717-0.01-0.343 0.407h-1.59l-0.217-0.167-0.717 0.103-0.717-0.214-0.716 0.257-0.258 0.021h-0.527l-0.648-0.35-0.716-0.015-0.705 0.365h-1.941l-0.219-0.112-0.717-0.027-0.311 0.139h-0.79l-0.33-0.155-0.383 0.155h-0.494l-0.555-0.465-0.716 0.272-0.211 0.193h-1.534l-0.402-0.468-0.409 0.468h-0.672l-0.35-0.336-0.716 0.011-0.715-0.106-0.38 0.431h-0.683l-0.368-0.405-0.323 0.405h-0.756l-0.351-0.473-0.716 0.333-0.305 0.14h-0.813l-0.312-0.146-0.715-0.235-0.516 0.381h-0.498l-0.416-0.204-0.715 0.06-0.256 0.144h-1.592l-0.297-0.097-0.714-0.09-0.715-0.24-0.38 0.427h-2.542l-0.651-0.496-0.715 0.131-0.714-0.114-0.451 0.479h-0.729l-0.249-0.15-0.714 0.031-0.153 0.119h-1.548l-0.442-0.445-0.715 0.049-0.714 0.095-0.369 0.301h-2.562l-0.64-0.35-0.478 0.35h-0.457l-0.493-0.382-0.366 0.382h-0.701l-0.361-0.369-0.714 0.328-0.086 0.041h-1.018l-0.324-0.25-0.714-0.12-0.503 0.37h-1.604l-0.035-0.019-0.714-0.109-0.713-0.293-0.714 0.26-0.441-0.104-0.207-0.472-0.561-0.737 0.621-0.735-0.412-0.733 0.159-0.73 0.196-0.732-0.227-0.73-0.057-0.734 0.017-0.73-0.047-0.73 0.213-0.732 0.358-0.729-0.632-0.728 0.512-0.729 0.229-0.73-0.778-0.728 0.588-0.726-0.294-0.724-0.26-0.724 0.051-0.728-0.191-0.728 0.434-0.729 0.069-0.729-0.456-0.729 0.868-0.728-0.732-0.728 0.724-0.727 0.008-0.727-0.662-0.728-0.274-0.73 0.832-0.728-0.731-0.727 0.278-0.726 0.354-0.727-0.143-0.724 0.205-0.727-0.694-0.725 0.742-0.727-0.798-0.726 0.021-0.729 0.644-0.729-0.411-0.727 0.338-0.725-0.61-0.725 0.749-0.724-0.055-0.724 0.091-0.722-0.416-0.724 0.146-0.723-0.227-0.722-0.312-0.724 0.727-0.723 0.106-0.724-0.086-0.725 0.219-0.724-0.716-0.727-0.222-0.727 0.643-0.727 0.095-0.725-0.07-0.726-0.588-0.723-0.136-0.723 0.191-0.722-0.112-0.721 0.293-0.721 0.148-0.725 0.226-0.726-0.09-0.726 0.006-0.726-0.334-0.726 0.072-0.728-0.015-0.726-0.336-0.726 0.206-0.726 0.564-0.725-0.084-0.724-0.271-0.725 0.353-0.724-0.53-0.726-0.112-0.724 0.031-0.725-0.024-0.724 0.233-0.726 0.167-0.724-0.365-0.726 0.146-0.725 0.11-0.725 0.016-0.727 0.158-0.727-0.384-0.726 0.33-0.726 0.005-0.725 0.185-0.725-0.037-0.725-0.087-0.724-0.211-0.724 0.384-0.725-0.446-0.723-0.252-0.724 0.526-0.722-0.04-0.724-0.567-0.724 0.578-0.723 0.016-0.724 0.075-0.723 0.258-0.724-0.494-0.724-0.277-0.723-0.146-0.725 0.423-0.724-0.347-0.725 0.785-0.724-0.416-0.726-0.511-0.725 0.58-0.726 0.132-0.726-0.217-0.725 0.037-0.726 0.121-0.724-0.141-0.725-0.306-0.724 0.078-0.724 0.228-0.723-0.039-0.724-0.11-0.723 0.146-0.722 0.472-0.722-0.439-0.723-0.423-0.723 0.188-0.721-0.184-0.722 0.747-0.722-0.757-0.722 0.393-0.721 0.284-0.722 0.167-0.722-0.748-0.722 0.073-0.722 0.153-0.721 0.48-0.722 0.041-0.722-0.281-0.722 0.299-0.723-0.202-0.722-0.479-0.722 0.361-0.723 0.313-0.722-0.747-0.723 0.313-0.724 0.37-0.723 0.008-0.724-0.197-0.724-0.554-0.724 0.797-0.725-0.034-0.724-0.597-0.725 0.133-0.726 0.413-0.724-0.283-0.725-0.335-0.723 0.279-0.724-0.471-0.724 0.203-0.722 0.146-0.723 0.306-0.723-0.238-0.722 0.135-0.722 0.371-0.722-0.063-0.721-0.142-0.721-0.13-0.721-0.276-0.721 0.583-0.721-0.32-0.72-0.552-0.721 0.325-0.719-0.067-0.72 0.514-0.72-0.611-0.72 0.042-0.719 0.364-0.72-0.2-0.719-0.099-0.719-0.281-0.719 0.846-0.719-0.585-0.719 0.096-0.719-0.195-0.719-0.105-0.719 0.644-0.719-0.129-0.719-0.565-0.719 0.268-0.719-0.059-0.719 0.054-0.719 0.168-0.719-0.027-0.719-0.364-0.719 0.447-0.72-0.565-0.719 0.254-0.72 0.689-0.72-0.604-0.719-0.129-0.72 0.153-0.72 0.617-0.72-0.491-0.72-0.356-0.721 0.283-0.72-0.255-0.721 0.145-0.72-0.122-0.721 0.448-0.722-0.14-0.721 0.306-0.722-0.652-0.722 0.706-0.722-0.552-0.722 0.546-0.723-0.481-0.723 0.533-0.722-0.413-0.724-0.466-0.723 0.088-0.724 0.693-0.725-0.342-0.723-0.111-0.723 0.137-0.723 0.444-0.722-0.015-0.722-0.086-0.722 0.036-0.722-0.298-0.721-0.481-0.72 0.844-0.721-0.786-0.72 0.792-0.72-0.279-0.72 0.267-0.72-0.099-0.72-0.583-0.719 0.726-0.719-0.715-0.721 0.025-0.723 0.452-0.721-0.043-0.722 0.101-0.723-0.688-0.721 0.209-0.721 0.286-0.723-0.385-0.722 0.778-0.722-0.222-0.721-0.133-0.722-0.321-0.722-0.292-0.722 0.086-0.722 0.792-0.721-0.396-0.723 0.245-0.722-0.703-0.722 0.652-0.722-0.399-0.722-0.268-0.723 0.152-0.722 0.181-0.722-0.295-0.723 0.913-0.723-0.081-0.722 0.056-0.724-0.116-0.723 0.123-0.722-0.454-0.724 0.008-0.723-0.108-0.723-0.386-0.724 0.639-0.724-0.624-0.723 0.541-0.723 0.1-0.723-0.086-0.723 0.198-0.723-0.016-0.722-0.321-0.722-0.264-0.723-0.011-0.723 0.653-0.722-0.744-0.722 0.35-0.722 0.327-0.722-0.53-0.722 0.567-0.721-0.522-0.722 0.359-0.722-0.049-0.722-0.046-0.722-0.151-0.721 0.379-0.72-0.157-0.722 0.01-0.721 0.329-0.722-0.443-0.721-0.103-0.721 0.208-0.722 0.264-0.72 0.011-0.721-0.573-0.721 0.655-0.721-0.354-0.721 0.271-0.722-0.743-0.721 0.082-0.721 0.758-0.721-0.676-0.72-0.299-0.721 0.202-0.721-0.111-0.721 0.326-0.722 0.181-0.721-0.428-0.721 0.762-0.722-0.877-0.72 0.131-0.721 0.048-0.721 0.315-0.722-0.299-0.721-0.217-0.721 0.006-0.722 0.417-0.722-0.311-0.721 0.495-0.721-0.578-0.722 0.19-0.722 0.041-0.722 0.217-0.721-0.069-0.722 0.534-0.723-0.965-0.722 0.72-0.721 0.03-0.723-0.512-0.723 0.675-0.723-0.747-0.721 0.5-0.724 0.051-0.723-0.32-0.722 0.194-0.723 0.2-0.724 0.093-0.722-0.87-0.724 0.362-0.723 0.365-0.722-0.023-0.723-0.083-0.723-0.392-0.722 0.508-0.722-0.492-0.722 0.145-0.723 0.289-0.722 0.071-0.721-0.148-0.722-0.434-0.722 0.278-0.721-0.063-0.722 0.047-0.721 0.195-0.721 0.128-0.721-0.058-0.722-0.301-0.721 0.251-0.721-0.02-0.721-0.499-0.721 0.55-0.721-0.504-0.72-0.09-0.72 0.472-0.721-0.525-0.721 0.161-0.72 0.264-0.721 0.398-0.72-0.418-0.72 0.525-0.721-0.33-0.72 0.223-0.72 0.022-0.72-0.681-0.72 0.296-0.721-0.354-0.72 0.13-0.72 0.038-0.72 0.034-0.72 0.203-0.72-0.472-0.719 0.34-0.72 0.182-0.72 0.22-0.72-0.183-0.72-0.416-0.719 0.293-0.72-0.237-0.72 0.475-0.72-0.292-0.72-0.21-0.719 0.699-0.72-0.404-0.72-0.484-0.72-0.02-0.72-0.004-0.72 0.089-0.72 0.53-0.719 0.089-0.721-0.598-0.719-0.042-0.72 0.515-0.72-0.048-0.721-0.391-0.719 0.301-0.721-0.189-0.72-0.032-0.72 0.032-0.72 0.633-0.72-0.4-0.721-0.037-0.72 0.332-0.721-0.809-0.72 0.214-0.721 0.568-0.72-0.188-0.721-0.204-0.721-0.356-0.72 0.748-0.721-0.203-0.721-0.049-0.72 0.327-0.721-0.89-0.721 0.133-0.722 0.764-0.72-0.609-0.722 0.597-0.722-0.067-0.721-0.669-0.721 0.43-0.722 0.221-0.722-0.314-0.721 0.207-0.722-0.026-0.721-0.568-0.723 0.859-0.722-0.41-0.722-0.242-0.722-0.232-0.722 0.111-0.723-0.157-0.723 0.924-0.722-0.608-0.723 0.265-0.722-0.037-0.723 0.269-0.722-0.824-0.722 0.128-0.722 0.653-0.722-0.311-0.721-0.096-0.722 0.315-0.722-0.406-0.721-0.09-0.722 0.269-0.722 0.187-0.72-0.433-0.721 0.656-0.721-0.738-0.721 0.031-0.721 0.007-0.721 0.378-0.721-0.414-0.72 0.605-0.721-0.318-0.72-0.347-0.72 0.711-0.72 0.183-0.721-0.953-0.72 0.393-0.72 0.215-0.72 0.205-0.719-0.04-0.72-0.021-0.72 0.015-0.72-0.317-0.719 0.34-0.719-0.542-0.72 0.122-0.719 0.458-0.719-0.571-0.719-0.091-0.719 0.547-0.719-0.531-0.72 0.245-0.72 0.125-0.718-0.021-0.719 0.121-0.719-0.111-0.719-0.284-0.718-0.141-0.719-0.094-0.719 0.304-0.719-0.235-0.719 0.485-0.718-0.614-0.718 0.116-0.719 0.18-0.719-0.241-0.719 0.67-0.718 0.197-0.718-0.172-0.718 0.206-0.718-0.489-0.719-0.443-0.719 0.613-0.718-0.103-0.718 0.14-0.718 0.196-0.718-0.39-0.719-0.106-0.718-0.035-0.718 0.547-0.718-0.633-0.718-0.161-0.719 0.28-0.717 0.12-0.718-0.476-0.718 0.32-0.719 0.068-0.718-0.003-0.718-0.146-0.718 0.638-0.718 0.053-0.718-0.22-0.718-0.142-0.718-0.404-0.718 0.131-0.718 0.615-0.719 0.053-0.718-0.073-0.718-0.717-0.718-0.057-0.718 0.046-0.719 0.012-0.718 0.101-0.718 0.585-0.717-0.457-0.719 0.484-0.719 0.066-0.718-0.222-0.718-0.572-0.718 0.358-0.718-0.308-0.719-0.203-0.719 0.001-0.718 0.314-0.718 0.653-0.719-0.192-0.718-0.473-0.719-0.25-0.719 0.037-0.718 0.53-0.719 0.224-0.717-0.766-0.719 0.838-0.72-0.629-0.718-0.203-0.719-0.029-0.719 0.818-0.719-0.34-0.719-0.349-0.718-0.062-0.72-0.143-0.719 0.566-0.719-0.093-0.72 0.277-0.719-0.08-0.719-0.628-0.719 0.365-0.72 0.589-0.719-0.23-0.719-0.294-0.72 0.493-0.719-0.25-0.72-0.447-0.72 0.352-0.719-0.376-0.72-0.115-0.72 0.357-0.719 0.277-0.721-0.568-0.72 0.106-0.721-0.09-0.719 0.495-0.721-0.136-0.72-0.352-0.721 0.506-0.72-0.614-0.721 0.601-0.721 0.035-0.721-0.699-0.721 0.108-0.72 0.222-0.721-0.109-0.721 0.104-0.721-0.284-0.722 0.15-0.72 0.024-0.722-0.212-0.722 0.615-0.721-0.452-0.721 0.407-0.722-0.57-0.723-0.021-0.721 0.26-0.722 0.686-0.721-0.663-0.721-0.247-0.722 0.925-0.721-0.162-0.721 0.044-0.721-0.133-0.722-0.587-0.721 0.592-0.72-0.551-0.72 0.283-0.721-0.322-0.721 0.261-0.72 0.173-0.721-0.49-0.719 0.16-0.721 0.592-0.72-0.696-0.719 0.191-0.721-0.106-0.72 0.259-0.72-0.388-0.719 0.423-0.72 0.383-0.719-0.355-0.719 0.405-0.72-0.611-0.72 0.439-0.718-0.496-0.72 0.104-0.718-0.032-0.719 0.054-0.719 0.157-0.718-0.291-0.719-0.08-0.72 0.467-0.718-0.165-0.718 0.237-0.718-0.706-0.719 0.517-0.718-0.207-0.719 0.286-0.718-0.343-0.717 0.447-0.718-0.171-0.719-0.165-0.718-0.199-0.717 0.243-0.718-0.185-0.718 0.432-0.718-0.484-0.716 0.667-0.718-0.109-0.718-0.158-0.718 0.091-0.716 0.09-0.718-0.085-0.717-0.663-0.718 0.147-0.716 0.253-0.718-0.175-0.717 0.72-0.717-0.579-0.717 0.083-0.717-0.476-0.716 0.213-0.717 0.146-0.717-0.311-0.717 0.909-0.717-0.661-0.715 0.647-0.718-0.331-0.716-0.335-0.716-0.072-0.717 0.754-0.716-0.168-0.717-0.52-0.716 0.359-0.716-0.306-0.717 0.488-0.715-0.739-0.718 0.162-0.715 0.062-0.716 0.417-0.717 0.011-0.715 0.132-0.716-0.502-0.716-0.366-0.716 0.974-0.717-0.963-0.716 0.711-0.715 0.089-0.717-0.316-0.715 0.086-0.716-0.542-0.716 0.424-0.715-0.47-0.715 0.258-0.716 0.101-0.716-0.094-0.715 0.473-0.717-0.38-0.714 0.394-0.716-0.336-0.716 0.544-0.716-0.238-0.714 0.087-0.717-0.638-0.715 0.72-0.715-0.514-0.716 0.001-0.716 0.414-0.715-0.146-0.716-0.153-0.715 0.187-0.715-0.104-0.716 0.216-0.715-0.308-0.715-0.204-0.716 0.25-0.716 0.346-0.714-0.18-0.716 0.285-0.715-0.085-0.716-0.224-0.715-0.119-0.716-0.422-0.714 0.032-0.716 0.285-0.715 0.138-0.716-0.17-0.714 0.304-0.717-0.686-0.714 0.23-0.716 0.376-0.715 0.178-0.716 0.134-0.714-0.955-0.717 0.543-0.714 0.445-0.715-0.57-0.716-0.163-0.715-0.096-0.715 0.411-0.715-0.105-0.716-0.286-0.715 0.623-0.716-0.271-0.715-0.518-0.716 0.611-0.715-0.486-0.716 0.045-0.715-0.072-0.715 0.887-0.716-0.56-0.716-0.424-0.714 0.166-0.717 0.661-0.715-0.345-0.716-0.265-0.715 0.281-0.716 0.018-0.715-0.251-0.716-0.052-0.715 0.591-0.716-0.804-0.716 0.808-0.715-0.245-0.715-0.479-0.716-0.088-0.716 0.386-0.715 0.363-0.717-0.136-0.715-0.097-0.716-0.036-0.716-0.253-0.716 0.062-0.715-0.134-0.717 0.474-0.715-0.582-0.717 0.156-0.715-0.151-0.716 0.557-0.717 0.009-0.715-0.014-0.716 0.306-0.717-0.872-0.716 0.793-0.716-0.702-0.716 0.858-0.716-0.069-0.717-0.761-0.716 0.382-0.717-0.064-0.716-0.347-0.716 0.776-0.717-0.157-0.716-0.584-0.717 0.28-0.716-0.18-0.718 0.162-0.716 0.371-0.717-0.747-0.716 0.275-0.716 0.65-0.718-0.945-0.716 0.114-0.718 0.563-0.717-0.594-0.716 0.279-0.717 0.225-0.717 0.338-0.718-0.037-0.716-0.757-0.719 0.202-0.716v-0.718l0.168-0.717 0.025-0.718-0.324-0.717 0.158-0.718-0.01-0.717-0.225-0.718 0.031-0.717 0.123-0.718-0.174-0.718 0.808-0.718-0.286-0.717-0.4-0.718-0.021-0.719 0.664-0.718-0.24-0.718-0.331-0.718-0.108-0.718 0.304-0.719 0.157-0.718 0.212-0.717-0.207-0.719-0.465-0.719 0.664-0.718-0.122-0.72-0.646-0.718 0.807-0.719-0.27-0.719-0.26-0.718-0.001-0.719 0.508-0.719-0.899-0.719 0.753-0.72-0.504-0.718-0.136-0.72 0.782-0.719-0.858-0.719 0.433-0.72-0.405-0.719-0.047-0.719 0.84-0.72-0.772-0.72 0.425-0.72 0.472-0.719-0.89-0.72 0.285-0.72 0.591-0.719-0.414-0.721-0.521-0.72 0.916-0.721-0.526-0.719 0.483-0.721-0.92-0.721 0.678-0.72-0.541-0.72 0.3-0.72-0.421-0.72 0.708-0.721 0.178-0.719-0.779-0.72 0.749-0.72-0.258-0.719 0.227-0.719-0.716-0.72-0.121-0.719 0.363-0.719 0.521-0.72-0.478-0.719 0.09-0.719 0.196-0.718-0.628-0.719 0.068-0.72 0.718-0.717-0.422-0.719 0.451-0.72-0.153-0.718-0.13-0.719-0.577-0.717 0.72-0.718-0.524-0.719 0.294-0.718-0.181-0.717 0.511-0.719-0.002-0.718-0.337-0.718 0.053-0.718-0.176-0.717 0.08-0.717 0.434-0.718-0.353-0.718-0.007-0.716 0.305-0.719-0.632-0.716 0.036-0.718-0.136-0.717 0.154-0.716-0.137-0.717 0.542-0.717-0.434-0.717 0.345-0.716 0.222-0.718-0.782-0.716 0.04-0.717 0.122-0.716-0.037-0.715 0.24-0.718 0.425-0.715 0.134-0.72-0.682-0.718 0.429-0.719-0.55-0.72 0.521-0.717 0.037-0.719-0.441-0.718-0.074-0.719-0.164-0.719 0.618-0.718 0.053-0.719-0.506-0.718 0.44-0.719 0.088-0.717-0.283-0.719-0.27-0.719-0.037-0.718 0.472-0.719 0.107-0.718-0.244-0.718 0.489-0.719-0.933-0.718 0.175-0.719 0.446-0.718 0.078-0.718-0.367-0.718-0.18-0.719 0.399-0.719 0.24-0.717-0.348-0.719-0.046-0.717-0.236-0.72 0.001-0.717 0.766-0.719-0.284-0.718 0.056-0.718 0.183-0.719-0.49-0.718 0.467-0.718 0.102-0.718-0.488-0.718 0.477-0.719-0.82-0.718 0.214-0.719 0.188-0.717 0.054-0.719-0.15-0.718-0.256-0.719 0.55-0.717-0.187-0.719-0.447-0.718 0.114-0.718 0.442-0.719-0.275-0.717-0.215-0.719 0.482-0.718-0.08-0.718 0.291-0.72-0.307-0.717 0.135-0.719-0.085-0.717-0.257-0.719-0.17-0.718 0.758-0.719-0.507-0.718 0.406-0.718 0.065-0.718-0.313-0.719 0.31-0.718-0.62-0.718 0.252-0.719 0.297-0.718-0.086-0.718-0.354-0.72 0.315-0.717-0.396-0.719 0.51-0.717-0.275-0.719 0.345-0.719-0.741-0.719 0.799-0.718 0.017-0.718-0.652-0.719 0.025-0.719 0.543-0.718-0.054-0.719-0.733-0.718 0.871-0.719-0.555-0.719 0.043-0.718-0.096-0.718-0.199-0.719 0.023-0.719 0.062-0.719 0.363-0.718-0.431-0.719 0.028-0.718 0.297-0.719-0.357-0.719 0.369-0.718 0.111-0.719 0.199-0.718-0.002-0.719-0.355-0.719 0.303-0.719-0.59-0.719 0.714-0.72-0.847-0.718-0.035-0.719 0.367-0.718-0.12-0.72 0.379-0.719-0.183-0.718-0.417-0.72 0.84-0.72-0.547-0.718-0.308-0.719 0.719-0.72-0.109-0.718-0.318-0.719 0.608-0.719-0.394-0.719-0.104-0.72-0.172-0.719-0.192-0.72 0.313-0.72 0.414-0.718-0.758-0.72 0.399-0.72 0.381-0.718-0.018-0.72v-0.72l0.18-0.719-0.612-0.72 0.163-0.72 0.157-0.718 0.317-0.72-0.076-0.72 0.003-0.72-0.766-0.719 0.486-0.72 0.124-0.72-0.493-0.719 0.081-0.72 0.085-0.72-0.112-0.721-0.247-0.719 0.232-0.72 0.171-0.72-0.1-0.72 0.304-0.72-0.136-0.72-0.272-0.72 0.578-0.72-0.514-0.72 0.523-0.72-0.107-0.72 0.076-0.72-0.776-0.72 0.688-0.72-0.223-0.72 0.469-0.719-0.005-0.72-0.644-0.719 0.481-0.72-0.754-0.72 0.579-0.719-0.286-0.72-0.03-0.719 0.219-0.719 0.118-0.544 0.564 0.158 0.4-0.334h1.377l0.425 0.378 0.353-0.378h1.016l0.09 0.057 0.731 0.181 0.731 0.188 0.336-0.426h0.97l0.153 0.133 0.732 0.226 0.549-0.359h0.534l0.371 0.121 0.18-0.121h1.18l0.097 0.057 0.31-0.057h1.176l0.69 0.265 0.722-0.195 0.728 0.404 0.727-0.3 0.427-0.174h0.653l0.376 0.13 0.728-0.032 0.727 0.083 0.205-0.181h0.876l0.371 0.483 0.644-0.483h0.681l0.129 0.013 0.028-0.013h2.569l0.31 0.356 0.396-0.356h2.152l0.351 0.252 0.727 0.171 0.725-0.408 0.029-0.015h1.172l0.254 0.198 0.726 0.103 0.316-0.301h1.772l0.084 0.058 0.722 0.026 0.12-0.084h1.104l0.221 0.185 0.272-0.185h1.119l0.053 0.024 0.103-0.024h3.18l0.332 0.134 0.222-0.134h0.816l0.413 0.403 0.615-0.403h0.211l0.625 0.46 0.529-0.46h1.83l0.531 0.49 0.417-0.49h0.862l0.161 0.103 0.13-0.103h1.155l0.164 0.138 0.725 0.079 0.379-0.217h4.209l0.488 0.427 0.476-0.427h2.725l0.418 0.373 0.724-0.213 0.575-0.16h0.233l0.639 0.312 0.289-0.312h0.795l0.365 0.478 0.468-0.478h2.193l0.239 0.208 0.725 0.07 0.726-0.067 0.215-0.211h1.086l0.147 0.127 0.187-0.127h3.816l0.336 0.339 0.722 0.088 0.723-0.107 0.389-0.32h0.641l0.415 0.368 0.34-0.368h1.98l0.57 0.44 0.723-0.13 0.724-0.161 0.193-0.149h3.014l0.412 0.459 0.612-0.459h1.522l0.041 0.008 0.039-0.008h3.032l0.546 0.349 0.723-0.056 0.462-0.293h1.875l0.551 0.382 0.321-0.382h0.879l0.242 0.239 0.721 0.069 0.721-0.201 0.721 0.075 0.642-0.182h0.139l0.661 0.247 0.721-0.094 0.72 0.219 0.722-0.051 0.448-0.321h0.708l0.285 0.127 0.72 0.029 0.363-0.156h0.664l0.416 0.21 0.387-0.21h0.819l0.236 0.088 0.722-0.057 0.149-0.031h1.372l0.644 0.233 0.723-0.187 0.409-0.046h1.797l0.686 0.321 0.509-0.321h0.625l0.313 0.102 0.439-0.102h0.411l0.598 0.31 0.449-0.31h2.084l0.36 0.351 0.669-0.351h0.151l0.625 0.179 0.194-0.179h1.2l0.049 0.036 0.721 0.147 0.287-0.183h4.386l0.368 0.493 0.384-0.493h0.943l0.112 0.08 0.149-0.08h3.131l0.315 0.281 0.718 0.121 0.718-0.118 0.719-0.082 0.284-0.202h2.94l0.367 0.128 0.399-0.128h0.613l0.424 0.147 0.206-0.147h0.89l0.339 0.327 0.336-0.327h1.395l0.424 0.129 0.206-0.129h2.004l0.663 0.043 0.059-0.043h1.237l0.141 0.117 0.556-0.117h2.876l0.162 0.117 0.164-0.117h0.922l0.353 0.381 0.525-0.381h5.036l0.201 0.065 0.48-0.065h3.598l0.253 0.078 0.17-0.078h1.653l0.345 0.416 0.722-0.011 0.723-0.025 0.721-0.227 0.406-0.153h1.379l0.379 0.42 0.72-0.188 0.246-0.232h4.903l0.606 0.487 0.716-0.487h2.017l0.142 0.087 0.204-0.087h5.362l0.201 0.185 0.371-0.185h0.637l0.434 0.264 0.31-0.264h3.009l0.285 0.195 0.246-0.195h1.505l0.413 0.455 0.346-0.455h0.749l0.348 0.461 0.477-0.461h2.108l0.302 0.255 0.308-0.255h2.342l0.237 0.068 0.722 0.336 0.531-0.404h1.406l0.231 0.228 0.483-0.228h2.264l0.142 0.076 0.722 0.018 0.213-0.094h1.024l0.206 0.09 0.219-0.09h2.167l0.5 0.383 0.721-0.298 0.291-0.085h1.05l0.101 0.021 0.045-0.021h1.393l0.004 0.002 0.008-0.002h0.939l0.495 0.37 0.72-0.075 0.343-0.295h1.457l0.362 0.191 0.72 0.173 0.72-0.096 0.72-0.167 0.122-0.101h3.026l0.453 0.159 0.72-0.109 0.154-0.05h0.765l0.521 0.491 0.432-0.491h2.084l0.365 0.356 0.72-0.064 0.72-0.262 0.41-0.03h1.224l0.526 0.375 0.72-0.05 0.637-0.325h0.209l0.594 0.2 0.22-0.2h1.452l0.489 0.417 0.721-0.292 0.213-0.125h1.012l0.215 0.127 0.721-0.062 0.72 0.272 0.721 0.092 0.721-0.101 0.721-0.161 0.565-0.167h1.765l0.553 0.463 0.623-0.463h3.946l0.48 0.211 0.344-0.211h0.819l0.281 0.148 0.53-0.148h1.314l0.322 0.159 0.245-0.159h1.317l0.604 0.195 0.722 0.266 0.722-0.105 0.722 0.071 0.721-0.084 0.722-0.125 0.72 0.148 0.721-0.104 0.329-0.262h2.243l0.312 0.312 0.575-0.312h0.248l0.619 0.478 0.72-0.283 0.721 0.302 0.72-0.143 0.683-0.354h0.064l0.693 0.483 0.72-0.337 0.72 0.331 0.72 0.017 0.72-0.103 0.332-0.391h1.219l0.608 0.184 0.197-0.184h1.003l0.239 0.243 0.328-0.243h1.359l0.471 0.049 0.719 0.074 0.719-0.063 0.719 0.104 0.231-0.164h2.688l0.677 0.474 0.72-0.153 0.71-0.321h1.026l0.42 0.409 0.508-0.409h0.438l0.492 0.369 0.63-0.369h1.456l0.071 0.012 0.719 0.367 0.718 0.002 0.719-0.195 0.719-0.114 0.122-0.072h2.593l0.161 0.136 0.359-0.136h0.545l0.534 0.391 0.718-0.314 0.133-0.077h1.495l0.53 0.277 0.719-0.217 0.22-0.06h0.709l0.509 0.33 0.719 0.028 0.719-0.358h1.251l0.187 0.093 0.719 0.367 0.72 0.003 0.398-0.463h0.656l0.385 0.431 0.624-0.431h0.261l0.554 0.22 0.567-0.22h2.087l0.224 0.207 0.72-0.176 0.044-0.031h1.114l0.282 0.31 0.719-0.071 0.342-0.239h0.997l0.101 0.043 0.082-0.043h4.127l0.113 0.076 0.125-0.076h0.954l0.363 0.368 0.72-0.222 0.484-0.146h2.272l0.128 0.052 0.243-0.052h0.654l0.545 0.318 0.722-0.204 0.195-0.114h0.824l0.424 0.44 0.721-0.05 0.409-0.39h0.69l0.345 0.274 0.721-0.225 0.074-0.049h1.444l0.645 0.444 0.721-0.052 0.449-0.392h1.492l0.222 0.136 0.72 0.307 0.721-0.267 0.72 0.242 0.614-0.418h3.329l0.377 0.328 0.319-0.328h2.625l0.653 0.428 0.719 0.011 0.672-0.439h0.094l0.672 0.44 0.362-0.44h0.866l0.211 0.181 0.442-0.181h1.408l0.306 0.293 0.495-0.293h3.685l0.132 0.056 0.157-0.056h1.574l0.423 0.18 0.548-0.18h0.336l0.552 0.185 0.718 0.228 0.718-0.046 0.719-0.016 0.372-0.351h2.168l0.331 0.367 0.718-0.118 0.503-0.249h0.397l0.535 0.311 0.642-0.311h3.363l0.3 0.318 0.717 0.155 0.718-0.166 0.717 0.182 0.718-0.24 0.717 0.237 0.718-0.156 0.717-0.197 0.316-0.133h2.553 3.228l0.357 0.454 0.717-0.027 0.717-0.104 0.68-0.323h5.101l0.674 0.156 0.718 0.014 0.717-0.121 0.093-0.049h2.721l0.054 0.015 0.717 0.337 0.718-0.195 0.285-0.157h2.087l0.496 0.373 0.469-0.373h0.48l0.486 0.417 0.718-0.03 0.717-0.272 0.717 0.025 0.718 0.154 0.489-0.294h0.397l0.548 0.45 0.521-0.45h0.559l0.356 0.168 0.201-0.168h1.107l0.127 0.094 0.718 0.166 0.45-0.26h0.841l0.144 0.039 0.054-0.039h2.204l0.614 0.346 0.718 0.051 0.718 0.03 0.718-0.311 0.718 0.021 0.718-0.013 0.273-0.124h0.89l0.274 0.124 0.718-0.108 0.047-0.016h2.391l0.435 0.47 0.719-0.305 0.351-0.165h1.87l0.653 0.462 0.72-0.221 0.718 0.05 0.72 0.027 0.563-0.318h0.265l0.61 0.482 0.375-0.482h0.818l0.244 0.227 0.72-0.056 0.719-0.066 0.719-0.072 0.078-0.033h1.78l0.301 0.085 0.72 0.202 0.298-0.287h6.373l0.53 0.426 0.721-0.003 0.721-0.071 0.372-0.352h0.83l0.24 0.165 0.448-0.165h2.125l0.31 0.318 0.542-0.318h0.645l0.253 0.056 0.086-0.056h1.622l0.452 0.182 0.72 0.303 0.72-0.219 0.557-0.266h0.267l0.615 0.45 0.544-0.45h0.662l0.233 0.069 0.096-0.069h1.767l0.294 0.202 0.345-0.202h2.944l0.307 0.12 0.199-0.12h2.394l0.28 0.237 0.718 0.206 0.505-0.443h1.408l0.242 0.209 0.325-0.209h1.483l0.347 0.364 0.717-0.123 0.718-0.065 0.497-0.176h2.253l0.12 0.066 0.718 0.221 0.429-0.287h0.487l0.518 0.5 0.717-0.225 0.258-0.275h5.12l0.357 0.191 0.718 0.016 0.218-0.207h1.537l0.394 0.471 0.715-0.086 0.431-0.385h0.56l0.442 0.415 0.717-0.06 0.319-0.355h1.335l0.495 0.21 0.715-0.203 0.717 0.128 0.715-0.126 0.026-0.009h1.773l0.348 0.231 0.716 0.198 0.574-0.429h1.869l0.421 0.352 0.327-0.352h0.766l0.337 0.373 0.344-0.373h1.956l0.563 0.46 0.577-0.46h1.203l0.365 0.418 0.715 0.079 0.438-0.497h4.025l0.543 0.461 0.604-0.461h1.289l0.251 0.259 0.715-0.123 0.256-0.136h0.811l0.363 0.251 0.715 0.223 0.499-0.474h1.834l0.526 0.48 0.62-0.48h0.229l0.579 0.312 0.716-0.185 0.42-0.127h0.937l0.071 0.01 0.017-0.01h1.263l0.15 0.112 0.715-0.039 0.714 0.19 0.714 0.064 0.71-0.327h0.01l0.709 0.437 0.715-0.242 0.444-0.195h0.636l0.349 0.113 0.184-0.113h1.048l0.196 0.124 0.297-0.124h0.653l0.479 0.355 0.415-0.355h0.632l0.382 0.297 0.696-0.198 0.751 0.103 0.241 0.774 0.72 0.213 0.71 0.198 0.103 1.053 0.545 0.457 0.885-0.106 0.522 0.486 0.718 0.174 0.35 0.704 0.769 0.223-0.114 0.859 0.953 0.449-0.611 0.798 0.137 0.683-0.363 0.687 0.894 0.745-0.202 0.695-0.482 0.727 0.42 0.731 0.381 0.801 0.289-1.166 0.762-0.285 0.803-0.144 0.81-0.025 0.743 0.363 0.589 0.359 0.144 0.542-0.087 0.746-0.394 0.672 0.311 0.826-0.505 0.684 0.063 0.756-0.284 0.757-0.042 0.714 0.773 0.713-0.779 0.687-0.166 0.671 0.013 0.706-0.064 0.728-0.217 0.708-0.11 0.722 0.534 0.751-0.64 0.694 0.689 0.74-0.352 0.715-0.024 0.721 0.264 0.741 0.365 0.73-0.457 0.747-0.349 0.796 0.713 0.262 0.691-0.281 0.585-0.434 0.643-0.478 0.734 0.363 0.495 0.558 0.64 0.275 0.646 0.251 0.605 0.317 0.873-0.109 0.569 0.4 0.343 0.745 0.537 0.456 0.935-0.167 0.303 0.822 0.554 0.428 0.807 0.085 0.568 0.463 0.095 0.768-0.044 0.711 0.255 0.692 0.648 0.516 0.504 0.521 0.139 0.715 0.247 0.73 0.238 0.705 0.105 0.677-0.032 0.702 0.003 0.787-0.089 0.725-0.934 0.599 0.237 0.797-0.318 0.741 0.251 0.771 0.135 0.757-0.039 0.722-0.186 0.715 0.157 0.719-0.2 0.694 0.415 0.902-1.042 0.115-0.096 1.014-1.123-0.099-0.466 0.599-0.402 0.625 0.022 0.863-0.145 0.74-0.93 0.343 0.002 0.804-0.147 0.726-0.397 0.628-0.21 0.706-0.146 0.724-0.913 0.428-0.243 0.705 0.478 0.922-0.293 0.655-0.707 0.655 0.355 0.776 0.568 0.601-0.433 0.906 0.781 0.534-0.311 0.808 0.452 0.667-0.057 0.743 0.441 0.72-0.774 0.745 0.21 0.727 0.481 0.725 0.047 0.711-0.079 0.701-0.233 0.704-0.209 0.719-0.073 0.738 0.901 0.513-0.554 1.005 0.616 0.486 0.379 0.601 0.292 0.647 0.435 0.589 0.577 0.55-0.477 0.934 0.905 0.447-0.148 0.797 0.293 0.658 0.275 0.663-0.301 0.826 0.578 0.596 0.349 0.668-0.415 0.816 0.87 0.597-0.242 0.764-0.399 0.683 0.189 0.824-0.742 0.342-0.816 0.319-0.623-0.597-0.639-0.367-0.58-0.496-0.754-0.079-0.798 0.043-0.636-0.354-0.617-0.459-0.708-0.208-0.737-0.135-0.746 0.145-0.686 0.267-0.611 0.531-0.742 0.083-0.674 0.288-0.845-0.37-0.792 0.001-0.251 1.039-0.284 0.45-0.158 0.584-0.909 0.618 0.376 0.755 0.41 0.721-0.542 0.744-0.177 0.735 0.083 0.721 0.327 0.707-0.246 0.72 0.044 0.714 0.109 0.722 0.343 0.754-0.84 0.651 0.056 0.736 0.004 0.728 0.473 0.765-0.121 0.717-0.765 0.672 0.596 0.772-0.627 0.684 0.388 0.76-0.229 0.713-0.052 0.726-0.077 0.721-0.043 0.718 0.277 0.755-0.638 0.652 0.273 0.772-0.296 0.696 0.363 0.782-0.316 0.697-0.53 0.678 0.179 0.756-0.464 0.681 0.107 0.777 0.027 0.763 0.232 0.774-0.007 0.749-0.605 0.714 0.473 0.761 0.467 0.236 0.405 0.85 0.647 0.589-0.51 0.962 0.289 0.675 0.799 0.482-0.331 1.072 0.974-0.069 0.854-0.391 0.686 0.446 0.239 0.949 0.879 0.06 0.346 0.665 0.521 0.458 0.011 0.71 0.731 0.772-0.513 0.558-0.455 0.51-0.902 0.413 0.553 0.878-0.112 0.665-0.29 0.672-0.157 0.729-0.314 0.694 0.426 0.808-0.306 0.733-0.485 0.697-0.497 0.483-1.127-0.088-0.06 0.889-0.472 0.573 0.069 0.884-0.86 0.322-0.588 0.441-0.201 0.764-0.592 0.418-0.723 0.276-0.627 0.431-0.241 0.786-0.094 0.852-0.468 0.54-0.764 0.348-0.395 0.622-0.146 0.731-0.226 0.683-0.653 0.598 0.057 0.77 0.358 0.777-0.344 0.7-0.33 0.71 0.389 0.754 0.229 0.745-0.514 0.698 0.232 0.748-0.651 0.675 0.733 0.805-0.464 0.688 0.324 0.778-0.377 0.689-0.66 0.605 0.458 0.788-0.679 0.562 0.359 0.824-0.304 0.729-0.64-0.483-1.011 0.395-0.434-0.195-0.661-0.21-0.518 0.498-0.335 0.636-0.663 0.365-0.407 0.572-0.253 0.705-0.296 0.636-0.577 0.531 0.221 0.842-0.002 0.743-1.023 0.417 0.459 0.891-0.71 0.532 0.08 0.776-0.277 0.666 0.168 0.79-0.119 0.711-0.613 0.581-0.379 0.649 0.081 0.766-0.146 0.712-0.374 0.654 0.007 0.744-0.351 0.665 0.151 0.776-0.169 0.711-0.607 0.612 0.171 0.774-0.118 0.715-0.201 0.701 0.325 0.799-0.578 0.633 0.196 0.777-0.885 0.58 0.473 0.829-0.181 0.704-0.619 0.627-0.092 0.72 0.04 0.745 0.146 0.762-0.386 0.669-0.099 0.722-0.055 0.729-0.338 0.68-0.29 0.67 0.785 0.854-0.54 0.623 0.23 0.749-0.671 0.61-0.262 0.674 0.06 0.718-0.115 0.698-0.262 0.691-0.006 0.727 0.671 0.654 0.417 0.331-0.703 0.641-1.018-0.421-0.421 0.687-0.037 0.842-0.934 0.295-0.191 0.71 0.112 0.737 0.037 0.708-0.435 0.674 0.605 0.717-0.179 0.691-0.59 0.703 0.278 0.698 0.66 0.677-0.108 0.698 0.213 0.707-0.694 0.77 0.685 0.658-0.416 0.776 0.806 0.447 0.077 0.078 0.709-0.092 0.668-0.253-0.362 1.046 1.023-0.038 0.502 0.5 0.822-0.023 0.477 0.661 0.397 0.668 0.514 0.48 0.741 0.257 0.103 0.786 0.093 0.565-0.262 0.534 0.21 0.961-0.986 0.113-0.545 0.452-0.008 1.045-0.554 0.474-1.017-0.007 0.093 1.1-0.565 0.439-0.979 0.227-0.293 0.756-0.213 0.815 0.054 0.869 0.381 0.628 0.541 0.617-0.438 0.675-0.324 0.591 0.565 0.876-0.794 0.668 0.679 0.721-0.332 0.732 0.332 0.698 0.336 0.685-0.385 0.76 0.47 0.639-0.302 0.779 0.327 0.655 0.54 0.57 0.037 0.736 0.124 0.713 0.614 0.564-0.043 0.768 0.309 0.665-0.349 0.821 0.468 0.631 0.297 0.675 0.189 0.7-0.27 0.777 0.462 0.649-0.289 0.773 0.35 0.672-0.11 0.745 0.585 0.619-0.592 0.823 0.639 0.612-0.434 0.804 0.788 0.573-0.69 0.622 0.163 0.807 0.235 0.739-0.041 0.71-0.51 0.696 0.318 0.82-0.151 0.799-0.661 0.497-0.909 0.068-0.418 0.675-0.605 0.506-0.62 0.588 0.266 0.929-0.716 0.674 0.07 0.795-0.047 0.724 0.029 0.721 0.773 0.7-0.27 0.731-0.13 0.73 0.303 0.718-0.563 0.743 0.184 0.72 0.201 0.722-0.375 0.743 0.772 0.693 0.023 0.726-0.08 0.731 0.142 0.723-0.471 0.752-0.138 0.736 0.259 0.715 0.069 0.724 0.031 0.726-0.198 0.741 0.088 0.726 0.575 0.701-0.076 0.737 0.235 0.716-0.661 0.769 0.283 0.713-0.181 0.739 0.024 0.729 0.737 0.683 0.299 0.71-0.759 0.777 0.845 0.663-0.692 0.764 0.628 0.666 0.245 0.691-0.364 0.745-0.075 0.721-0.168 0.734 0.057 0.713 0.937 0.559-0.556 0.849 0.866 0.389 0.087 0.142 0.475-0.34 0.314-0.633 0.896-0.24-0.1-0.967 0.571-0.481 0.513-0.533 0.673-0.346 0.766-0.084 0.659-0.04 0.625-0.156 0.686 0.028 0.755 0.005 0.69 0.219 0.753 0.162 0.515 0.579 0.323 0.71 0.463 0.562-0.297 0.839 0.574 0.568 0.382 0.684 0.069 0.723-0.896 0.69 0.339 0.712 0.441 0.723-0.702 0.672-0.158 0.7 0.106 0.712 0.429 0.715-0.103 0.702-0.217 0.706-0.188 0.711 0.064 0.716 0.611 0.725-0.365 0.713 0.219 0.748-0.708 0.565-0.182 0.526-0.5 0.693-0.752-0.33-0.791-0.124-0.567 0.62-0.824 0.073-0.614 0.455-0.027 1.004-0.696 0.344-0.818 0.215-0.257 0.678 0.021 0.982-0.584 0.426-0.98-0.16-0.436 0.581-0.736 0.571-0.874-0.488-0.208-0.69-0.099 0.455 0.28 0.732 0.414 0.694-0.841 0.778 0.191 0.717 0.333 0.689-0.093 0.739 0.57 0.64 0.165 0.7 0.032 0.726 0.401 0.653-0.272 0.79 0.112 0.712-0.025 0.746 0.435 0.629 0.155 0.692-0.308 0.798 0.326 0.65 0.53 0.579-0.148 0.862 0.957-0.175 0.736 0.314 0.652 0.401 0.318 0.72 0.187 0.763 1.064 0.063-0.208 1.03 0.542 0.473 0.498 0.506 0.396 0.569 0.234 0.662 0.778 0.331 0.311 0.622 0.279 0.641 0.497 0.719-0.489 0.746 0.795 0.351-0.175 0.922 0.442 0.55 0.97 0.19 0.084 0.806 0.348 0.628 0.556 0.471 0.075 0.818 0.255 0.702 0.835 0.246 0.601 0.423 0.588 0.473 0.196 0.757-0.043 0.858 0.196 0.7 0.761 0.4-0.11 0.853 0.343 0.62 0.341 0.636 0.125 0.706 0.331 0.692-0.169 0.741-0.115 0.73 0.635 0.734-0.665 0.733-0.071 0.74 0.059 0.741 0.617 0.71 0.286 0.711-0.576 0.781-0.251 0.772 0.126 0.735 0.415 0.69 0.546 0.656-0.486 0.832 0.638 0.627 0.02 0.742 0.386 0.665-0.035 0.743 0.179 0.7 0.39 0.644-0.046 0.741 0.081 0.683 0.629 0.622-0.176 0.775 0.236 0.697 0.186 0.707-0.185 0.749 0.249 0.674 0.408 0.665-0.609 0.758 0.157 0.694-0.616-0.03-0.643 0.178-0.488 0.994-0.669 0.073-0.894-0.088-0.031 1.047-1.147-0.138-0.169 0.809-0.692 0.419-0.398 0.647-0.182 0.791-0.223 0.734-0.74 0.447-0.11 0.992 0.898 0.283 0.014 0.873 0.539 0.529 0.762 0.532-0.085 0.821-0.012 0.762-0.051 0.734 0.454 0.801-0.947 0.564-0.217 0.67 0.504 0.991-0.5 0.587-0.82 0.569 0.033 0.904 0.589 0.733-0.195 0.726-0.39 0.632-0.49 0.573-0.427 0.594-0.603 0.497-0.066 0.791-0.821 0.373-0.245 0.692-0.518 0.538 0.173 0.931-0.572 0.508-0.421 0.595-0.12 0.768-0.23 0.709-0.699 0.434-0.024 0.826-0.321 0.654-0.862 0.34-0.37 0.625-0.073 0.799-0.252 0.698-0.76 0.399 0.236 0.974-0.756 0.399-0.108 0.771-0.754 0.398-0.064 0.796-0.535 0.521-0.394 0.603-0.157 0.734-0.328 0.644-0.629 0.477-0.667 0.454v0.825l-0.448 0.58-0.25 0.683-0.093 0.767-0.776 0.409-0.318 0.651-0.17 0.726-0.426 0.605 0.072 0.817-0.088 0.715-0.511 0.665-0.109 0.718 0.223 0.649 0.432 0.745 0.149 0.717-0.045 0.697-0.876 0.712 0.83 0.71-0.125 0.716 0.029 0.716 0.187 0.709-0.234 0.735 0.03 0.718 0.297 0.696-0.744 0.759 0.86 0.662-0.668 0.722-0.187 0.676 0.153 0.672-0.437 0.608 0.18 0.811-0.23 0.735 0.43 0.685 0.171 0.702-0.037 0.717 0.164 0.694-0.137 0.731 0.58 0.617-0.34 0.812 0.625 0.085 0.436-0.752 0.923 0.413 0.021 0.879 0.182 0.524 0.642 0.583-0.301 0.675 0.198 0.803-0.609 0.54-0.451 0.574 0.168 0.855-0.634 0.492-0.555 0.54 0.14 0.837-0.452 0.591-0.043 0.738-0.026 0.722-0.503 0.622 0.275 0.751 0.229 0.693-0.872 0.753 0.189 0.734 0.176 0.713 0.153 0.717 0.049 0.759 0.793 0.508 0.139 0.737 0.517 0.535 0.423 0.594 0.099 0.812 0.826 0.329 0.484 0.557v0.856l0.687 0.443 0.471 0.577-0.116 0.9 0.249 0.692 0.891 0.35 0.414 0.609-0.032 0.84 0.086 0.776 1.012 0.307-0.398 1.013 0.881 0.374-0.142 0.876 0.789 0.416-0.251 0.935 0.573 0.515 0.73 0.441-0.228 0.923 0.776 0.418-0.016 0.817 0.437 0.587 0.01 0.801 0.456 0.572 0.794 0.401 0.356 0.62 0.219 0.695 0.241 0.683 0.225 0.692-0.064 0.835 0.942 0.337-0.233 0.916 0.507 0.545 0.315 0.642 0.06 0.764 1.002 0.329 0.019 0.786 0.537 0.552 0.022 0.784-0.133 0.852 0.675 0.493-0.024 0.796 0.659 0.492-0.045 0.799 0.216 0.677 0.421 0.585 0.786 0.389-0.055 0.859 0.321-0.302-0.072 0.822-1.032 0.356 0.112 0.805-0.724 0.47 0.575 1.001-0.379 0.609-0.135 0.709-0.617 0.515-0.269 0.655-0.017 0.751-0.228 0.675-0.917 0.425-0.313 0.651 0.462 0.908-0.207 0.672-0.123 0.698-1.048 0.431 0.438 0.853-0.535 0.594 0.147 0.753 0.232 0.752-0.734 0.603-0.095 0.711-0.271 0.732 0.477 0.726 0.333 0.708 0.301 0.664-0.06 0.651 0.614 0.378 0.324 0.751 0.323 0.677 0.392 0.65 0.163 0.735 0.038 0.746 0.059 0.721 0.308 0.66 0.063 0.725-0.346 0.641-0.667 0.47-0.198 0.721-0.283 0.677-0.452 0.616 0.069 0.801 0.347 0.87-0.37 0.639-0.571 0.593-0.268 0.68-0.029 0.737-0.297 0.678 0.356 0.812-0.844 0.598 0.452 0.855-0.026 0.752-0.886 0.581 0.642 0.889-0.657 0.629-0.435 0.673-0.048 0.737-0.173 0.718 0.236 0.81-0.595 0.645 0.619 0.884-0.039 0.711-0.411 0.636-0.069 0.696 0.237 0.675-0.249 0.898 0.882-0.082 0.7-0.021 0.562-0.944 0.761 0.228 0.762 0.138 0.69 0.352 0.416 0.659 0.277 0.762 0.652 0.387 0.142 0.742 0.141 0.519-0.445 0.611-0.542 0.432-0.501 0.546-0.379 0.671-0.129 0.745-0.052 0.754 0.02 0.761 0.176 0.734 0.49 0.463 0.367 0.721 0.227 0.757 0.888 0.288-0.051 0.906 0.668 0.492 0.411 0.646 0.328 0.668 0.159 0.742 0.134 0.738 0.53 0.642-0.793-0.273-0.66 0.777-0.837-0.327-0.617 0.443-0.431 0.621-0.745 0.369 0.154 0.987-0.627 0.451-0.771 0.354 0.025 0.834-0.633 0.353-0.306-0.001-0.529 0.129-0.722 0.139-0.549 0.451-0.396 0.631-1.025-0.036 0.008 0.945-0.068 0.598-0.259 0.836 0.474 0.584 0.893 0.158 0.058 0.796 0.422 0.621-0.174 0.82 0.519 0.658 0.772 0.21 0.722 0.288 0.754 0.319 0.389 0.736 0.632 0.49 0.068 0.873 0.423 0.624 0.161 0.728 0.249 0.679 0.145 0.756-0.124 0.842-0.833 0.33-0.492 0.577-0.44 0.627-0.855 0.337 0.277 1.038-0.69 0.42-0.414 0.587-0.463 0.558-0.463 0.541-0.101 0.783-0.472 0.538-0.049 0.924-0.81 0.261-0.8 0.276-0.512 0.535 0.076 1.035-0.89 0.222-0.05 0.934-0.519 0.531-0.889 0.218-0.045 0.947-0.732 0.352-0.866 0.229-0.379 0.6-0.4 0.579 0.076 0.948-0.661 0.353-0.439 0.526-0.286 0.637 0.696 0.359 0.617-0.548 0.709 0.238 0.46 0.43 0.867 0.061 0.365 0.559-0.113 0.244-0.055 0.82-0.261 0.658-0.151 0.711-0.16 0.762-0.73 0.33-0.625 0.418-0.026 0.82-0.683 0.414-0.282 0.656-0.08 0.727-0.123 0.686-0.542 0.606-0.328 0.698 0.922 0.746-0.107 0.678 0.143 0.737-0.401 0.762-0.328 0.817 0.704-0.349 0.878-0.083 0.755 0.319 0.752-0.018 0.454 0.712 0.99-0.174 0.586 0.458 0.173 1.002 0.857 0.081 0.724 0.514-0.273 0.828-0.177 0.712 0.071 0.734-0.136 0.732-0.432 0.791 0.265 0.731 0.418 0.688-0.018 0.73-0.264 0.742 0.295 0.678-0.206 0.707 0.426 0.71-0.344 0.688-0.187 0.687 0.761 0.827-0.27 0.689-0.124 0.711-0.762 0.59 0.63 0.851-0.261 0.686-0.025 0.72-0.222 0.688-0.568 0.654 0.018 0.733-0.113 0.721-0.077 0.729 0.549 0.733-0.122 0.716-0.582 0.744 0.706 0.682-0.268 0.743-0.102 0.741 0.313 0.696-0.265 0.776 0.369 0.676-0.088 0.757 0.295 0.684 0.831 0.547-0.163 0.777 0.29 0.664 0.415 0.629 0.225 0.688-0.094 0.78 0.344 0.667 0.083 0.736-0.167 0.766 0.062 0.721-0.069 0.725 0.395 0.713-0.521 0.721 0.021 0.72 0.144 0.732-0.076 0.72-0.405 0.683 0.079 0.735 0.307 0.773-0.064 0.725-0.002 0.736-0.361 0.695 0.1 0.767-0.682 0.641-0.112 0.731-0.081 0.738 0.158 0.765-0.099 0.732 0.352 0.756 0.197 0.589-0.607 0.892-0.059 0.687 0.54 0.726 0.424 0.766-0.227 0.738-0.777 0.695 0.341 0.749-0.459 0.716 0.075 0.728 0.716 0.708-0.111 0.717-0.233 0.733 0.308 0.69-0.229 0.755 0.252 0.691-0.18 0.773 0.756 0.57-0.214 0.789 0.328 0.654 0.491 0.594 0.19 0.683-0.097 0.786 0.26 0.666 0.041 0.745 0.751 0.48 0.098 0.726-0.198 0.829 0.359 0.627 0.883 0.472-0.084 0.793 0.378 0.651-0.526 0.978 0.309-1.221-0.347 0.716-0.318 0.775-0.86 0.324-0.534 0.487-0.184 0.746-0.651 0.416-0.138 0.774-0.77 0.359 0.17 0.936-0.662 0.46-0.275 0.674 0.331 0.836-0.759 0.58 0.267 0.736 0.427 0.609 0.091 0.68 0.353 0.594 0.206 0.766 0.523 0.502 0.689 0.285 0.641 0.313 0.673 0.241 0.56 0.421 0.492 0.545 0.634 0.316 0.364 0.698 0.695 0.236 0.768 0.225 0.179 0.8 0.379 0.584 0.582 0.459 0.116 0.739 0.305 0.627 0.646 0.503 0.271 0.667 0.408 0.627-0.339 0.843 0.73 0.561-0.237 0.79 0.241 0.684 0.043 0.72-0.451 0.781 0.494 0.644-0.276 0.74 0.509 0.67 0.009 0.713 0.218 0.703-0.384 0.719-0.293 0.705 0.644 0.708-0.02 0.71-0.285 0.703 0.405 0.711 0.149 0.7-0.858 0.74 0.122 0.741 0.333 0.723-0.123 0.56 0.109 0.636 0.304 0.86-0.707 0.447-0.477 0.526-0.446 0.535 0.092 0.908-0.668 0.393-0.118 0.782-1.03 0.116-0.401 0.572-0.008 0.871-0.734 0.33 0.043 0.911-0.924 0.191-0.057 0.836-0.534 0.484-0.344 0.624-0.088 0.802-0.68 0.385-0.071 0.816-1.07 0.202 0.427 1.035-1.139 0.294 0.47 0.905-0.515 0.649 0.199 0.727 0.26 0.676-0.069 0.786 0.141 0.732 0.753 0.483 0.029 0.771-0.095 0.799 0.749 0.511 0.066 0.742 0.275 0.681 0.298 0.681-0.472 0.836 0.166 0.696 0.079 0.715 0.561 0.66-0.217 0.767 0.621 0.664-0.004 0.731-0.263 0.781 0.272 0.696 0.294 0.68-0.015 0.814 0.788 0.001 0.707 0.126 0.633 0.457 0.714 0.386 0.281 0.713 0.161 0.691 0.011 0.755 0.254 0.616 0.764 0.427-0.273 0.678 0.153 0.735-0.655 0.605 0.619 0.71-0.709 0.709 0.326 0.853-0.177 0.795-0.455 0.623-0.874 0.585 0.912 0.563 0.01 1.03 0.749 0.338 0.832 0.121 0.219 0.744-0.149 0.744 0.595 0.598-0.342 0.689 0.034 0.707-0.505 0.617 0.359 0.793-0.405 0.639 0.103 0.745-0.384 0.648 0.214 0.756-0.009 0.714 0.013 0.712-0.803 0.637 0.832 0.768-0.82 0.675 0.172 0.718-0.13 0.713-0.032 0.713-0.082 0.713 0.073 0.752 0.026 0.762-0.225 0.704-0.863 0.467 0.227 0.862-0.026 0.79-0.82 0.421-0.037 0.797-0.371 0.629-0.425 0.595-0.779 0.372 0.11 0.921-0.905 0.273 0.305 1.084-0.907 0.256-0.347 0.645-0.19 0.759-0.163 0.778-0.97 0.197-0.029 0.864-0.595 0.471-0.059 0.784-1.071 0.417 0.888 0.729-0.135 0.804 0.63 0.424 0.572 0.484 0.679 0.347 0.411 0.694 0.507 0.517 0.457 0.557-0.133 0.736 0.804 0.722-0.396 0.732-0.637 0.447-0.426 0.638-0.549 0.461-0.739 0.116-0.349 0.598-0.462 0.372-0.77 0.478 0.419 0.7 0.044 0.739 0.306 0.696 0.459 0.606 0.996-0.163 0.645 0.254 0.293 0.842 0.943-0.173 0.149 0.98 0.648 0.302 0.449 0.547 0.026 0.712-0.148 0.647-0.176 0.571-0.423 0.443-0.284 0.753-0.586 0.444-0.738 0.093-0.704 0.127-0.772-0.136-0.668 0.201-0.47 0.948-0.809-0.296-0.557 0.57-0.779-0.106-0.472 0.616-0.439 0.448-0.332 0.4-0.538 0.62 0.481 0.679 0.052 0.678 0.085 0.683-0.276 0.771 0.81 0.529 0.07 0.697-0.641 0.877 0.902 0.503 0.035 0.713 0.009 0.716 0.093 0.693 0.542 0.633-0.413 0.757-0.107 0.719 0.598 0.77-0.852 0.644-0.001 0.732 0.36 0.824-0.72 0.594-0.187 0.702 0.046 0.767-0.616 0.586 0.334 0.856 0.125 0.803-0.819 0.51-0.261 0.68 0.167 1.203-0.156 0.715-0.269 0.679-0.63 0.554 0.152 0.83h-2.45z" fill="#fff"/></g></g></svg>
