<?xml version="1.0" encoding="UTF-8" standalone="no"?>
<svg id="svg2" xmlns:rdf="http://www.w3.org/1999/02/22-rdf-syntax-ns#" xmlns="http://www.w3.org/2000/svg" xml:space="preserve" height="565.22" width="614.44" version="1.1" xmlns:cc="http://creativecommons.org/ns#" xmlns:dc="http://purl.org/dc/elements/1.1/" viewBox="0 0 614.43604 565.22131"><metadata id="metadata8"><rdf:RDF><cc:Work rdf:about=""><dc:format>image/svg+xml</dc:format><dc:type rdf:resource="http://purl.org/dc/dcmitype/StillImage"/><dc:title/></cc:Work></rdf:RDF></metadata><defs id="defs6"><clipPath id="clipPath11498" clipPathUnits="userSpaceOnUse"><path id="path11496" d="m5832.3 1996.2c-11.52-39.8-70.76-22.3-61.57 17.74 5 14.45 16.4 21.17 28.15 21.89 6.28 0.14 12.58-1.14 18.2-3.79 11.97-6.05 20.16-18.83 15.22-35.84zm-16.92 49.2-0.1 0.02-0.11 0.05c-3 1.01-5.98 1.66-8.93 1.99-22.65 2.92-43.34-11.53-50.95-33.53-5.69-24.83 6.7-50.73 32.21-57.93 24.42-7 51.07 7.6 57.95 32.2 6.65 23.76-6.64 49.29-30.07 57.2z"/></clipPath><radialGradient id="radialGradient11506" cx="0" gradientUnits="userSpaceOnUse" cy="0" r="1" gradientTransform="matrix(46.707 0 0 -46.707 5800.6 2001)"><stop id="stop11500" stop-color="#c68322" offset="0"/><stop id="stop11502" stop-color="#353032" offset=".50196"/><stop id="stop11504" stop-color="#c68322" offset="1"/></radialGradient></defs><g id="g11492" transform="matrix(-.13333 0 0 .13333 914.44 209.93)"><g id="g11494" clip-path="url(#clipPath11498)"><path id="path11508" d="m5832.3 1996.2c-11.52-39.8-70.76-22.3-61.57 17.74 5 14.45 16.4 21.17 28.15 21.89 6.28 0.14 12.58-1.14 18.2-3.79 11.97-6.05 20.16-18.83 15.22-35.84zm-16.92 49.2-0.1 0.02-0.11 0.05c-3 1.01-5.98 1.66-8.93 1.99-22.65 2.92-43.34-11.53-50.95-33.53-5.69-24.83 6.7-50.73 32.21-57.93 24.42-7 51.07 7.6 57.95 32.2 6.65 23.76-6.64 49.29-30.07 57.2" fill="url(#radialGradient11506)"/></g></g></svg>
