<?xml version="1.0" encoding="UTF-8" standalone="no"?>
<svg id="svg2" xmlns:rdf="http://www.w3.org/1999/02/22-rdf-syntax-ns#" xmlns="http://www.w3.org/2000/svg" xml:space="preserve" height="565.22" width="614.44" version="1.1" xmlns:cc="http://creativecommons.org/ns#" xmlns:dc="http://purl.org/dc/elements/1.1/" viewBox="0 0 614.43604 565.22131"><metadata id="metadata8"><rdf:RDF><cc:Work rdf:about=""><dc:format>image/svg+xml</dc:format><dc:type rdf:resource="http://purl.org/dc/dcmitype/StillImage"/><dc:title/></cc:Work></rdf:RDF></metadata><defs id="defs6"><clipPath id="clipPath11444" clipPathUnits="userSpaceOnUse"><path id="path11442" d="m5899.7 2020.8c1.02 15.26 10.25 24.74 21.4 28.52 6.02 1.78 12.44 2.21 18.57 1.12 13.14-2.68 24.39-12.87 24.11-30.62-0.66-41.47-62.4-40.07-64.08 0.98zm34.79 42.08h-0.11l-0.11 0.02c-3.16 0.18-6.21 0.03-9.14-0.43-22.62-3.14-38.76-22.53-40.32-45.77 1.04-25.45 19.82-47.15 46.33-47.45 25.4-0.2 47.26 20.9 47.42 46.37 0.16 24.68-19.38 45.8-44.07 47.26z"/></clipPath><radialGradient id="radialGradient11452" cx="0" gradientUnits="userSpaceOnUse" cy="0" r="1" gradientTransform="matrix(46.861 0 0 -46.861 5931.7 2016.1)"><stop id="stop11446" stop-color="#c68322" offset="0"/><stop id="stop11448" stop-color="#353032" offset=".50196"/><stop id="stop11450" stop-color="#c68322" offset="1"/></radialGradient></defs><g id="g11438" transform="matrix(-.13333 0 0 -.13333 914.44 743.54)"><g id="g11440" clip-path="url(#clipPath11444)"><path id="path11454" d="m5899.7 2020.8c1.02 15.26 10.25 24.74 21.4 28.52 6.02 1.78 12.44 2.21 18.57 1.12 13.14-2.68 24.39-12.87 24.11-30.62-0.66-41.47-62.4-40.07-64.08 0.98zm34.79 42.08h-0.11l-0.11 0.02c-3.16 0.18-6.21 0.03-9.14-0.43-22.62-3.14-38.76-22.53-40.32-45.77 1.04-25.45 19.82-47.15 46.33-47.45 25.4-0.2 47.26 20.9 47.42 46.37 0.16 24.68-19.38 45.8-44.07 47.26" fill="url(#radialGradient11452)"/></g></g></svg>
