<?xml version="1.0" encoding="UTF-8" standalone="no"?>
<svg id="svg2" xmlns:rdf="http://www.w3.org/1999/02/22-rdf-syntax-ns#" xmlns="http://www.w3.org/2000/svg" xml:space="preserve" height="1600" width="1600" version="1.1" xmlns:cc="http://creativecommons.org/ns#" xmlns:xlink="http://www.w3.org/1999/xlink" viewBox="0 0 1600 1600" xmlns:dc="http://purl.org/dc/elements/1.1/"><metadata id="metadata8"><rdf:RDF><cc:Work rdf:about=""><dc:format>image/svg+xml</dc:format><dc:type rdf:resource="http://purl.org/dc/dcmitype/StillImage"/><dc:title/></cc:Work></rdf:RDF></metadata><defs id="defs6"><radialGradient id="radialGradient10467" gradientUnits="userSpaceOnUse" cy="1336.1" cx="577.89" gradientTransform="matrix(.98918 .14673 -.14568 .98208 307.06 179.86)" r="14.58"><stop id="stop6947" stop-color="#c68322" offset="0"/><stop id="stop8131" stop-color="#353032" offset=".5"/><stop id="stop6949" stop-color="#c68322" offset="1"/></radialGradient></defs><path id="path10435" d="m677.86 1587.2c-5.539-3.8949-7.9621-11.304-3.7692-17.217 3.8664-5.4557 11.831-6.896 17.215-2.7747 12.101 9.2651-0.45865 26.555-13.446 19.992zm13.826-22.729c-6.4581-3.9786-15.136-2.2341-19.542 3.9514-5.0036 7.0244-2.5295 16.153 4.288 20.844 0.0485 0.02 0.097 0.028 0.1432 0.062 0.0505 0.021 0.0793 0.065 0.13328 0.1007 6.9753 3.6092 15.58 1.9875 19.818-4.9727 4.1267-6.7744 1.8947-15.836-4.84-19.985" fill="url(#radialGradient10467)"/></svg>
