<?xml version="1.0" encoding="UTF-8" standalone="no"?>
<svg id="svg2" xmlns:rdf="http://www.w3.org/1999/02/22-rdf-syntax-ns#" xmlns="http://www.w3.org/2000/svg" xml:space="preserve" height="565.22" width="614.44" version="1.1" xmlns:cc="http://creativecommons.org/ns#" xmlns:xlink="http://www.w3.org/1999/xlink" viewBox="0 0 614.43604 565.22131" xmlns:dc="http://purl.org/dc/elements/1.1/"><metadata id="metadata8"><rdf:RDF><cc:Work rdf:about=""><dc:format>image/svg+xml</dc:format><dc:type rdf:resource="http://purl.org/dc/dcmitype/StillImage"/><dc:title/></cc:Work></rdf:RDF></metadata><defs id="defs6"><clipPath id="clipPath11516" clipPathUnits="userSpaceOnUse"><path id="path11514" d="m6169.5 4029.8c-15.83-8.75-34.36-2.14-43.51 12.65-6.76 13.7-3.5 26.48 4.29 35.28 4.32 4.51 9.66 8.05 15.51 10.14 12.75 4.2 27.65 0.97 36.37-14.56 8.54-15.21 2.49-35.15-12.66-43.51zm-28.35 68.78c-2.7-0.84-5.35-1.96-7.9-3.39-23.09-12.86-29.38-40.93-18.1-63.77 13.33-21.58 40.83-31.08 63.78-18.11 22.11 12.5 30.65 41.46 18.1 63.78-11.07 19.68-35.03 28.39-55.88 21.49z"/></clipPath><radialGradient id="radialGradient21799" gradientUnits="userSpaceOnUse" cy="0" cx="0" gradientTransform="matrix(46.666 0 0 -46.666 6156.3 4054.1)" r="1"><stop id="stop11518" stop-color="#c68322" offset="0"/><stop id="stop11520" stop-color="#353032" offset=".50196"/><stop id="stop11522" stop-color="#c68322" offset="1"/></radialGradient></defs><g id="g21793" transform="matrix(-.13333 0 0 -.13333 860.44 849.66)"><g id="g21795" clip-path="url(#clipPath11516)"><path id="path21797" d="m6169.5 4029.8c-15.83-8.75-34.36-2.14-43.51 12.65-6.76 13.7-3.5 26.48 4.29 35.28 4.32 4.51 9.66 8.05 15.51 10.14 12.75 4.2 27.65 0.97 36.37-14.56 8.54-15.21 2.49-35.15-12.66-43.51zm-28.35 68.78c-2.7-0.84-5.35-1.96-7.9-3.39-23.09-12.86-29.38-40.93-18.1-63.77 13.33-21.58 40.83-31.08 63.78-18.11 22.11 12.5 30.65 41.46 18.1 63.78-11.07 19.68-35.03 28.39-55.88 21.49" fill="url(#radialGradient21799)"/></g></g></svg>
