<?xml version="1.0" encoding="UTF-8" standalone="no"?>
<svg id="svg2" xmlns:rdf="http://www.w3.org/1999/02/22-rdf-syntax-ns#" xmlns="http://www.w3.org/2000/svg" xml:space="preserve" height="1600" width="1600" version="1.1" xmlns:cc="http://creativecommons.org/ns#" xmlns:xlink="http://www.w3.org/1999/xlink" viewBox="0 0 1600 1600" xmlns:dc="http://purl.org/dc/elements/1.1/"><metadata id="metadata8"><rdf:RDF><cc:Work rdf:about=""><dc:format>image/svg+xml</dc:format><dc:type rdf:resource="http://purl.org/dc/dcmitype/StillImage"/><dc:title/></cc:Work></rdf:RDF></metadata><defs id="defs6"><radialGradient id="radialGradient10633" gradientUnits="userSpaceOnUse" cy="1336.1" cx="577.89" gradientTransform="matrix(.51410 .85773 -.85157 .51041 967.83 25.261)" r="14.58"><stop id="stop6947" stop-color="#c68322" offset="0"/><stop id="stop8131" stop-color="#353032" offset=".5"/><stop id="stop6949" stop-color="#c68322" offset="1"/></radialGradient></defs><path id="path10553" d="m115.17 1204.7c-0.50314-6.7526 3.687-13.326 10.918-13.836 6.6701-0.4723 12.836 4.7703 13.066 11.547 0.51461 15.232-20.818 16.492-23.983 2.2889zm26.341-3.7315c-1.0214-7.5163-7.8752-13.118-15.452-12.6-8.6042 0.5885-14.091 8.292-13.392 16.538 0.0151 0.05 0.0403 0.092 0.0432 0.1498 0.0161 0.052-0.00022 0.1027 0.007 0.1669 1.6351 7.6817 8.3473 13.304 16.416 12.164 7.8546-1.1077 13.443-8.5816 12.378-16.42" fill="url(#radialGradient10633)"/></svg>
