<?xml version="1.0" encoding="UTF-8" standalone="no"?>
<svg id="svg2" xmlns:rdf="http://www.w3.org/1999/02/22-rdf-syntax-ns#" xmlns="http://www.w3.org/2000/svg" xml:space="preserve" height="1600" width="1600" version="1.1" xmlns:cc="http://creativecommons.org/ns#" xmlns:xlink="http://www.w3.org/1999/xlink" viewBox="0 0 1600 1600" xmlns:dc="http://purl.org/dc/elements/1.1/"><metadata id="metadata8"><rdf:RDF><cc:Work rdf:about=""><dc:format>image/svg+xml</dc:format><dc:type rdf:resource="http://purl.org/dc/dcmitype/StillImage"/><dc:title/></cc:Work></rdf:RDF></metadata><defs id="defs6"><radialGradient id="radialGradient9995" gradientUnits="userSpaceOnUse" cy="1336.1" cx="577.89" gradientTransform="matrix(.42756 .90399 -.89750 .42449 1043.1 45.361)" r="14.58"><stop id="stop6947" stop-color="#c68322" offset="0"/><stop id="stop8131" stop-color="#353032" offset=".5"/><stop id="stop6949" stop-color="#c68322" offset="1"/></radialGradient></defs><path id="path9977" d="m78.907 1135.6c0.16116-6.7695 4.9754-12.9 12.221-12.699 6.6843 0.1837 12.307 6.0055 11.871 12.772-0.98084 15.209-22.334 14.372-24.092-0.073zm26.58-1.1317c-0.27979-7.5802-6.5515-13.826-14.142-14.053-8.6204-0.2577-14.836 6.8709-14.949 15.146 0.01005 0.052 0.031 0.096 0.02827 0.1533 0.01091 0.053-0.01029 0.1022-0.0096 0.1667 0.87429 7.805 7.003 14.058 15.145 13.715 7.9254-0.3325 14.22-7.2226 13.928-15.127" fill="url(#radialGradient9995)"/></svg>
