<?xml version="1.0" encoding="UTF-8" standalone="no"?>
<svg id="svg2" xmlns:rdf="http://www.w3.org/1999/02/22-rdf-syntax-ns#" xmlns="http://www.w3.org/2000/svg" xml:space="preserve" height="1600" width="1600" version="1.1" xmlns:cc="http://creativecommons.org/ns#" xmlns:xlink="http://www.w3.org/1999/xlink" viewBox="0 0 1600 1600" xmlns:dc="http://purl.org/dc/elements/1.1/"><metadata id="metadata8"><rdf:RDF><cc:Work rdf:about=""><dc:format>image/svg+xml</dc:format><dc:type rdf:resource="http://purl.org/dc/dcmitype/StillImage"/><dc:title/></cc:Work></rdf:RDF></metadata><defs id="defs6"><radialGradient id="radialGradient10649" gradientUnits="userSpaceOnUse" cy="1336.1" cx="577.89" gradientTransform="matrix(.33689 .94154 -.93479 .33447 1116 72.739)" r="14.58"><stop id="stop6947" stop-color="#c68322" offset="0"/><stop id="stop8131" stop-color="#353032" offset=".5"/><stop id="stop6949" stop-color="#c68322" offset="1"/></radialGradient></defs><path id="path10577" d="m49.602 1063.2c0.82391-6.721 6.2159-12.351 13.407-11.44 6.6341 0.838 11.659 7.1828 10.562 13.874-2.4668 15.04-23.635 12.113-23.969-2.4341zm26.563 1.4791c0.46454-7.5711-5.1648-14.402-12.697-15.372-8.5537-1.1014-15.438 5.3837-16.362 13.608 0.0049 0.052 0.02145 0.098 0.01311 0.1554 0.0056 0.054-0.02025 0.1007-0.02594 0.1649 0.10506 7.8531 5.5914 14.677 13.727 15.134 7.9198 0.4459 14.859-5.7941 15.344-13.689" fill="url(#radialGradient10649)"/></svg>
