<?xml version="1.0" encoding="UTF-8" standalone="no"?>
<svg id="svg2" xmlns:rdf="http://www.w3.org/1999/02/22-rdf-syntax-ns#" xmlns="http://www.w3.org/2000/svg" xml:space="preserve" height="1600" width="1600" version="1.1" xmlns:cc="http://creativecommons.org/ns#" xmlns:xlink="http://www.w3.org/1999/xlink" viewBox="0 0 1600 1600" xmlns:dc="http://purl.org/dc/elements/1.1/"><metadata id="metadata8"><rdf:RDF><cc:Work rdf:about=""><dc:format>image/svg+xml</dc:format><dc:type rdf:resource="http://purl.org/dc/dcmitype/StillImage"/><dc:title/></cc:Work></rdf:RDF></metadata><defs id="defs6"><radialGradient id="radialGradient10443" gradientUnits="userSpaceOnUse" cy="1336.1" cx="577.89" gradientTransform="matrix(.24298 .97003 -.96307 .24124 1185.9 107.13)" r="14.58"><stop id="stop6947" stop-color="#c68322" offset="0"/><stop id="stop8131" stop-color="#353032" offset=".5"/><stop id="stop6949" stop-color="#c68322" offset="1"/></radialGradient></defs><path id="path10403" d="m27.531 988.28c1.4787-6.6079 7.3966-11.682 14.464-10.071 6.52 1.4842 10.898 8.291 9.1513 14.843-3.9291 14.725-24.709 9.7383-23.615-4.7717zm26.29 4.0756c1.2044-7.4891-3.7283-14.839-11.129-16.542-8.4045-1.9345-15.891 3.8445-17.616 11.938-0.000218 0.0526 0.01169 0.10016-0.0022 0.1559 0.000268 0.0546-0.03003 0.0983-0.04198 0.16165-0.66518 7.8256 4.1259 15.154 12.178 16.406 7.838 1.2201 15.356-4.3096 16.612-12.119" fill="url(#radialGradient10443)"/></svg>
