<?xml version="1.0" encoding="UTF-8" standalone="no"?>
<svg id="svg2" xmlns:rdf="http://www.w3.org/1999/02/22-rdf-syntax-ns#" xmlns="http://www.w3.org/2000/svg" xml:space="preserve" height="1600" width="1600" version="1.1" xmlns:cc="http://creativecommons.org/ns#" xmlns:xlink="http://www.w3.org/1999/xlink" viewBox="0 0 1600 1600" xmlns:dc="http://purl.org/dc/elements/1.1/"><metadata id="metadata8"><rdf:RDF><cc:Work rdf:about=""><dc:format>image/svg+xml</dc:format><dc:type rdf:resource="http://purl.org/dc/dcmitype/StillImage"/><dc:title/></cc:Work></rdf:RDF></metadata><defs id="defs6"><radialGradient id="radialGradient9925" gradientUnits="userSpaceOnUse" cy="1336.1" cx="577.89" gradientTransform="matrix(.049068 .99880 -.99163 .048716 1313.9 195.57)" r="14.58"><stop id="stop6947" stop-color="#c68322" offset="0"/><stop id="stop8131" stop-color="#353032" offset=".5"/><stop id="stop6949" stop-color="#c68322" offset="1"/></radialGradient></defs><path id="path9923" d="m5.8751 833.81c2.7394-6.1925 9.5335-10.014 16.151-7.0556 6.1052 2.7277 9.0716 10.258 6.0798 16.343-6.7264 13.676-26.134 4.7307-22.23-9.2871zm24.99 9.1262c2.6423-7.1102-0.76172-15.281-7.6879-18.396-7.8656-3.537-16.336 0.67039-19.607 8.272-0.010482 0.0516-0.00808 0.10052-0.032557 0.15248-0.010384 0.0536-0.048618 0.0905-0.07271 0.15035-2.1791 7.5454 1.0901 15.668 8.7433 18.467 7.4493 2.7258 15.901-1.2311 18.657-8.6459" fill="url(#radialGradient9925)"/></svg>
