<?xml version="1.0" encoding="UTF-8" standalone="no"?>
<svg id="svg2" xmlns:rdf="http://www.w3.org/1999/02/22-rdf-syntax-ns#" xmlns="http://www.w3.org/2000/svg" xml:space="preserve" height="1600" width="1600" version="1.1" xmlns:cc="http://creativecommons.org/ns#" xmlns:xlink="http://www.w3.org/1999/xlink" viewBox="0 0 1600 1600" xmlns:dc="http://purl.org/dc/elements/1.1/"><metadata id="metadata8"><rdf:RDF><cc:Work rdf:about=""><dc:format>image/svg+xml</dc:format><dc:type rdf:resource="http://purl.org/dc/dcmitype/StillImage"/><dc:title/></cc:Work></rdf:RDF></metadata><defs id="defs6"><radialGradient id="radialGradient10677" gradientUnits="userSpaceOnUse" cy="1336.1" cx="577.89" gradientTransform="matrix(.99880 .049068 -.048716 .99163 -494.83 -588.93)" r="14.58"><stop id="stop6947" stop-color="#c68322" offset="0"/><stop id="stop8131" stop-color="#353032" offset=".5"/><stop id="stop6949" stop-color="#c68322" offset="1"/></radialGradient></defs><path id="path10613" d="m12.135 775.31c-5.8937-3.33-9.0314-10.47-5.4382-16.76 3.313-5.8084 11.098-8.0224 16.86-4.4487 12.951 8.0344 2.1464 26.472-11.421 21.213zm11.532-23.975c-6.817-3.3265-15.282-0.73975-19.061 5.8478-4.2909 7.4811-0.93406 16.323 6.3104 20.323 0.0503 0.0155 0.09924 0.0179 0.14856 0.0473 0.0523 0.0156 0.08529 0.0573 0.1425 0.0871 7.2955 2.9082 15.699 0.45089 19.235-6.8912 3.4428-7.1463 0.33341-15.945-6.7755-19.414" fill="url(#radialGradient10677)"/></svg>
