<?xml version="1.0" encoding="UTF-8" standalone="no"?>
<svg id="svg2" xmlns:rdf="http://www.w3.org/1999/02/22-rdf-syntax-ns#" xmlns="http://www.w3.org/2000/svg" xml:space="preserve" height="565.22" width="614.44" version="1.1" xmlns:cc="http://creativecommons.org/ns#" xmlns:dc="http://purl.org/dc/elements/1.1/" viewBox="0 0 614.43604 565.22131"><metadata id="metadata8"><rdf:RDF><cc:Work rdf:about=""><dc:format>image/svg+xml</dc:format><dc:type rdf:resource="http://purl.org/dc/dcmitype/StillImage"/><dc:title/></cc:Work></rdf:RDF></metadata><defs id="defs6"><clipPath id="clipPath11462" clipPathUnits="userSpaceOnUse"><path id="path11460" d="m6257.7 4137.7c-12.92-12.58-32.63-11.32-45.32 0.69-10.22 11.38-11.88 27.94-3.51 40.3 1.24 1.74 2.59 3.44 4.21 5.01 12.52 12.2 33.14 11.81 45.31-0.69 12.19-12.52 11.81-33.14-0.69-45.31zm-45.46 58.85c-2.39-1.51-4.63-3.27-6.72-5.29-18.88-18.32-17.77-47.38-0.76-66.3 18.56-17.58 47.43-19.03 66.28-0.77 18.33 17.75 18.52 48.1 0.78 66.3-15.82 16.21-41.26 18.16-59.58 6.06z"/></clipPath><radialGradient id="radialGradient11470" cx="0" gradientUnits="userSpaceOnUse" cy="0" r="1" gradientTransform="matrix(46.625 0 0 -46.625 6238.3 4157.7)"><stop id="stop11464" stop-color="#c68322" offset="0"/><stop id="stop11466" stop-color="#353032" offset=".50196"/><stop id="stop11468" stop-color="#c68322" offset="1"/></radialGradient></defs><g id="g11456" transform="matrix(-.13333 0 0 -.13333 914.44 743.54)"><g id="g11458" clip-path="url(#clipPath11462)"><path id="path11472" d="m6257.7 4137.7c-12.92-12.58-32.63-11.32-45.32 0.69-10.22 11.38-11.88 27.94-3.51 40.3 1.24 1.74 2.59 3.44 4.21 5.01 12.52 12.2 33.14 11.81 45.31-0.69 12.19-12.52 11.81-33.14-0.69-45.31zm-45.46 58.85c-2.39-1.51-4.63-3.27-6.72-5.29-18.88-18.32-17.77-47.38-0.76-66.3 18.56-17.58 47.43-19.03 66.28-0.77 18.33 17.75 18.52 48.1 0.78 66.3-15.82 16.21-41.26 18.16-59.58 6.06" fill="url(#radialGradient11470)"/></g></g></svg>
