<?xml version="1.0" encoding="UTF-8" standalone="no"?>
<svg id="svg2" xmlns:rdf="http://www.w3.org/1999/02/22-rdf-syntax-ns#" xmlns="http://www.w3.org/2000/svg" xml:space="preserve" height="1600" width="1600" version="1.1" xmlns:cc="http://creativecommons.org/ns#" xmlns:xlink="http://www.w3.org/1999/xlink" viewBox="0 0 1600 1600" xmlns:dc="http://purl.org/dc/elements/1.1/"><metadata id="metadata8"><rdf:RDF><cc:Work rdf:about=""><dc:format>image/svg+xml</dc:format><dc:type rdf:resource="http://purl.org/dc/dcmitype/StillImage"/><dc:title/></cc:Work></rdf:RDF></metadata><defs id="defs6"><radialGradient id="radialGradient10471" gradientUnits="userSpaceOnUse" cy="1336.1" cx="577.89" gradientTransform="matrix(.98918 .14673 -.14568 .98208 -352.34 -709.23)" r="14.58"><stop id="stop6947" stop-color="#c68322" offset="0"/><stop id="stop8131" stop-color="#353032" offset=".5"/><stop id="stop6949" stop-color="#c68322" offset="1"/></radialGradient></defs><path id="path10439" d="m18.462 698.12c-5.539-3.8949-7.9621-11.304-3.7692-17.217 3.8664-5.4557 11.831-6.896 17.215-2.7747 12.101 9.2651-0.45865 26.555-13.446 19.992zm13.826-22.72c-6.4581-3.9787-15.136-2.2341-19.542 3.9514-5.0036 7.0244-2.5295 16.153 4.2879 20.844 0.04854 0.0203 0.09701 0.0275 0.1432 0.0617 0.05052 0.0206 0.07927 0.0653 0.13328 0.10064 6.9753 3.6093 15.58 1.9875 19.818-4.9727 4.1267-6.7744 1.8947-15.836-4.84-19.985" fill="url(#radialGradient10471)"/></svg>
