<?xml version="1.0" encoding="UTF-8" standalone="no"?>
<svg id="svg2" xmlns:rdf="http://www.w3.org/1999/02/22-rdf-syntax-ns#" xmlns="http://www.w3.org/2000/svg" xml:space="preserve" height="565.22" width="614.44" version="1.1" xmlns:cc="http://creativecommons.org/ns#" xmlns:dc="http://purl.org/dc/elements/1.1/" viewBox="0 0 614.43604 565.22131"><metadata id="metadata8"><rdf:RDF><cc:Work rdf:about=""><dc:format>image/svg+xml</dc:format><dc:type rdf:resource="http://purl.org/dc/dcmitype/StillImage"/><dc:title/></cc:Work></rdf:RDF></metadata><defs id="defs6"><clipPath id="clipPath11372" clipPathUnits="userSpaceOnUse"><path id="path11370" d="m6314.4 4265c-9.18-15.54-28.46-19.44-43.87-11.32-12.78 8.36-18.9 23.78-14.07 37.92 0.73 2.01 1.6 4.01 2.74 5.96 8.87 15.03 28.85 20.19 43.89 11.32 14.99-8.85 20.17-28.87 11.31-43.88zm-0.24 54.58c-19.46 11.45-44.62 6.75-59.11-9.74-1.9-2.08-3.59-4.38-5.07-6.89-13.4-22.77-4.71-50.21 16.62-64.18 22.55-11.88 50.8-6.12 64.18 16.63 12.93 21.97 5.35 51.25-16.62 64.18z"/></clipPath><radialGradient id="radialGradient11380" cx="0" gradientUnits="userSpaceOnUse" cy="0" r="1" gradientTransform="matrix(46.661 0 0 -46.661 6290.4 4279.3)"><stop id="stop11374" stop-color="#c68322" offset="0"/><stop id="stop11376" stop-color="#353032" offset=".50196"/><stop id="stop11378" stop-color="#c68322" offset="1"/></radialGradient></defs><g id="g11366" transform="matrix(-.13333 0 0 -.13333 914.44 743.54)"><g id="g11368" clip-path="url(#clipPath11372)"><path id="path11382" d="m6314.4 4265c-9.18-15.54-28.46-19.44-43.87-11.32-12.78 8.36-18.9 23.78-14.07 37.92 0.73 2.01 1.6 4.01 2.74 5.96 8.87 15.03 28.85 20.19 43.89 11.32 14.99-8.85 20.17-28.87 11.31-43.88zm-0.24 54.58c-19.46 11.45-44.62 6.75-59.11-9.74-1.9-2.08-3.59-4.38-5.07-6.89-13.4-22.77-4.71-50.21 16.62-64.18 22.55-11.88 50.8-6.12 64.18 16.63 12.93 21.97 5.35 51.25-16.62 64.18" fill="url(#radialGradient11380)"/></g></g></svg>
