<?xml version="1.0" encoding="UTF-8" standalone="no"?>
<svg id="svg2" xmlns:rdf="http://www.w3.org/1999/02/22-rdf-syntax-ns#" xmlns="http://www.w3.org/2000/svg" xml:space="preserve" height="1600" width="1600" version="1.1" xmlns:cc="http://creativecommons.org/ns#" xmlns:xlink="http://www.w3.org/1999/xlink" viewBox="0 0 1600 1600" xmlns:dc="http://purl.org/dc/elements/1.1/"><metadata id="metadata8"><rdf:RDF><cc:Work rdf:about=""><dc:format>image/svg+xml</dc:format><dc:type rdf:resource="http://purl.org/dc/dcmitype/StillImage"/><dc:title/></cc:Work></rdf:RDF></metadata><defs id="defs6"><radialGradient id="radialGradient10645" gradientUnits="userSpaceOnUse" cy="1336.1" cx="577.89" gradientTransform="matrix(.97003 .24298 -.24124 .96307 -198.75 -815)" r="14.58"><stop id="stop6947" stop-color="#c68322" offset="0"/><stop id="stop8131" stop-color="#353032" offset=".5"/><stop id="stop6949" stop-color="#c68322" offset="1"/></radialGradient></defs><path id="path10567" d="m32.324 621.93c-5.1306-4.4191-6.8158-12.03-2.0635-17.503 4.3825-5.0505 12.449-5.7032 17.404-1.074 11.134 10.407-3.0593 26.382-15.34 18.577zm15.987-21.265c-6.037-4.5925-14.844-3.7069-19.835 2.0169-5.668 6.5002-4.1006 15.827 2.2242 21.164 0.04631 0.025 0.09384 0.0369 0.13646 0.0754 0.04825 0.0255 0.07249 0.0728 0.12277 0.11323 6.588 4.2756 15.31 3.505 20.21-3.0063 4.7708-6.3373 3.4378-15.574-2.8578-20.363" fill="url(#radialGradient10645)"/></svg>
