<?xml version="1.0" encoding="UTF-8" standalone="no"?>
<svg id="svg2" xmlns:rdf="http://www.w3.org/1999/02/22-rdf-syntax-ns#" xmlns="http://www.w3.org/2000/svg" xml:space="preserve" height="565.22" width="614.44" version="1.1" xmlns:cc="http://creativecommons.org/ns#" xmlns:dc="http://purl.org/dc/elements/1.1/" viewBox="0 0 614.43604 565.22131"><metadata id="metadata8"><rdf:RDF><cc:Work rdf:about=""><dc:format>image/svg+xml</dc:format><dc:type rdf:resource="http://purl.org/dc/dcmitype/StillImage"/><dc:title/></cc:Work></rdf:RDF></metadata><defs id="defs6"><clipPath id="clipPath11300" clipPathUnits="userSpaceOnUse"><path id="path11298" d="m6296.3 4380.2c-14.52 4.81-21.42 16.12-22.31 27.86-0.24 6.27 0.94 12.59 3.51 18.24 5.85 12.05 18.51 20.4 35.63 15.74 39.95-10.88 23.35-70.5-16.83-61.84zm24.77 75.06c-23.84 6.38-49.24-7.22-56.87-30.73l-0.02-0.11-0.05-0.11c-0.97-3.01-1.59-6-1.88-8.95-2.65-22.67 12.02-43.23 34.12-50.56 24.9-5.37 50.58 7.27 57.58 32.88 6.69 24.52-8.27 50.98-32.88 57.58z"/></clipPath><radialGradient id="radialGradient11308" cx="0" gradientUnits="userSpaceOnUse" cy="0" r="1" gradientTransform="matrix(46.713 0 0 -46.713 6308.7 4410.3)"><stop id="stop11302" stop-color="#c68322" offset="0"/><stop id="stop11304" stop-color="#353032" offset=".50196"/><stop id="stop11306" stop-color="#c68322" offset="1"/></radialGradient></defs><g id="g11294" transform="matrix(-.13333 0 0 -.13333 914.44 743.54)"><g id="g11296" clip-path="url(#clipPath11300)"><path id="path11310" d="m6296.3 4380.2c-14.52 4.81-21.42 16.12-22.31 27.86-0.24 6.27 0.94 12.59 3.51 18.24 5.85 12.05 18.51 20.4 35.63 15.74 39.95-10.88 23.35-70.5-16.83-61.84zm24.77 75.06c-23.84 6.38-49.24-7.22-56.87-30.73l-0.02-0.11-0.05-0.11c-0.97-3.01-1.59-6-1.88-8.95-2.65-22.67 12.02-43.23 34.12-50.56 24.9-5.37 50.58 7.27 57.58 32.88 6.69 24.52-8.27 50.98-32.88 57.58" fill="url(#radialGradient11308)"/></g></g></svg>
