<?xml version="1.0" encoding="UTF-8" standalone="no"?>
<svg id="svg2" xmlns:rdf="http://www.w3.org/1999/02/22-rdf-syntax-ns#" xmlns="http://www.w3.org/2000/svg" xml:space="preserve" height="565.22" width="614.44" version="1.1" xmlns:cc="http://creativecommons.org/ns#" xmlns:dc="http://purl.org/dc/elements/1.1/" viewBox="0 0 614.43604 565.22131"><metadata id="metadata8"><rdf:RDF><cc:Work rdf:about=""><dc:format>image/svg+xml</dc:format><dc:type rdf:resource="http://purl.org/dc/dcmitype/StillImage"/><dc:title/></cc:Work></rdf:RDF></metadata><defs id="defs6"><clipPath id="clipPath10778" clipPathUnits="userSpaceOnUse"><path id="path10776" d="m6258.9 4530.2c-1.88 5.98-2.41 12.39-1.41 18.52 2.49 13.17 12.5 24.55 30.24 24.55 41.41 0 41.06-61.87 0-64.09-15.27 0.83-24.89 9.93-28.83 21.02zm79.87 11.03c0 25.41-21.39 46.99-46.89 46.88-24.67-0.11-45.58-19.93-46.75-44.62l0.01-0.1-0.02-0.12c-0.15-3.16 0.05-6.21 0.53-9.14 3.41-22.56 22.98-38.53 46.23-39.78 25.44 1.37 46.89 20.33 46.89 46.88z"/></clipPath><radialGradient id="radialGradient10786" cx="0" gradientUnits="userSpaceOnUse" cy="0" r="1" gradientTransform="matrix(46.866 0 0 -46.866 6292 4541.2)"><stop id="stop10780" stop-color="#c68322" offset="0"/><stop id="stop10782" stop-color="#353032" offset=".50196"/><stop id="stop10784" stop-color="#c68322" offset="1"/></radialGradient></defs><g id="g10772" transform="matrix(-.13333 0 0 -.13333 914.44 743.54)"><g id="g10774" clip-path="url(#clipPath10778)"><path id="path10788" d="m6258.9 4530.2c-1.88 5.98-2.41 12.39-1.41 18.52 2.49 13.17 12.5 24.55 30.24 24.55 41.41 0 41.06-61.87 0-64.09-15.27 0.83-24.89 9.93-28.83 21.02zm79.87 11.03c0 25.41-21.39 46.99-46.89 46.88-24.67-0.11-45.58-19.93-46.75-44.62l0.01-0.1-0.02-0.12c-0.15-3.16 0.05-6.21 0.53-9.14 3.41-22.56 22.98-38.53 46.23-39.78 25.44 1.37 46.89 20.33 46.89 46.88" fill="url(#radialGradient10786)"/></g></g></svg>
