<?xml version="1.0" encoding="UTF-8" standalone="no"?>
<svg id="svg2" xmlns:rdf="http://www.w3.org/1999/02/22-rdf-syntax-ns#" xmlns="http://www.w3.org/2000/svg" xml:space="preserve" height="565.22" width="614.44" version="1.1" xmlns:cc="http://creativecommons.org/ns#" xmlns:dc="http://purl.org/dc/elements/1.1/" viewBox="0 0 614.43604 565.22131"><metadata id="metadata8"><rdf:RDF><cc:Work rdf:about=""><dc:format>image/svg+xml</dc:format><dc:type rdf:resource="http://purl.org/dc/dcmitype/StillImage"/><dc:title/></cc:Work></rdf:RDF></metadata><defs id="defs6"><clipPath id="clipPath11354" clipPathUnits="userSpaceOnUse"><path id="path11352" d="m6022.3 2061.2c-3.02 14.99 3.4 26.55 13.16 33.13 5.34 3.31 11.42 5.4 17.62 5.96 13.38 0.86 26.93-6.01 31.31-23.21 10.26-40.13-49.66-55.06-62.09-15.88zm22.49 49.74-0.09-0.04-0.13-0.01c-3.09-0.65-6-1.61-8.7-2.82-20.99-8.98-31.46-31.95-26.85-54.77 7.7-24.27 31.55-40.25 57.19-33.55 24.58 6.42 40.1 32.54 33.55 57.19-6.34 23.86-30.77 39.08-54.97 34z"/></clipPath><radialGradient id="radialGradient11362" cx="0" gradientUnits="userSpaceOnUse" cy="0" r="1" gradientTransform="matrix(46.754 0 0 -46.754 6054.6 2065.1)"><stop id="stop11356" stop-color="#c68322" offset="0"/><stop id="stop11358" stop-color="#353032" offset=".50196"/><stop id="stop11360" stop-color="#c68322" offset="1"/></radialGradient></defs><g id="g11348" transform="matrix(-.13333 0 0 -.13333 914.44 743.54)"><g id="g11350" clip-path="url(#clipPath11354)"><path id="path11364" d="m6022.3 2061.2c-3.02 14.99 3.4 26.55 13.16 33.13 5.34 3.31 11.42 5.4 17.62 5.96 13.38 0.86 26.93-6.01 31.31-23.21 10.26-40.13-49.66-55.06-62.09-15.88zm22.49 49.74-0.09-0.04-0.13-0.01c-3.09-0.65-6-1.61-8.7-2.82-20.99-8.98-31.46-31.95-26.85-54.77 7.7-24.27 31.55-40.25 57.19-33.55 24.58 6.42 40.1 32.54 33.55 57.19-6.34 23.86-30.77 39.08-54.97 34" fill="url(#radialGradient11362)"/></g></g></svg>
