<?xml version="1.0" encoding="UTF-8" standalone="no"?>
<svg id="svg2" xmlns:rdf="http://www.w3.org/1999/02/22-rdf-syntax-ns#" xmlns="http://www.w3.org/2000/svg" xml:space="preserve" height="1600" width="1600" version="1.1" xmlns:cc="http://creativecommons.org/ns#" xmlns:xlink="http://www.w3.org/1999/xlink" viewBox="0 0 1600 1600" xmlns:dc="http://purl.org/dc/elements/1.1/"><metadata id="metadata8"><rdf:RDF><cc:Work rdf:about=""><dc:format>image/svg+xml</dc:format><dc:type rdf:resource="http://purl.org/dc/dcmitype/StillImage"/><dc:title/></cc:Work></rdf:RDF></metadata><defs id="defs6"><radialGradient id="radialGradient10661" gradientUnits="userSpaceOnUse" cy="1336.1" cx="577.89" gradientTransform="matrix(.90399 .42756 -.42449 .89750 135.74 -978.96)" r="14.58"><stop id="stop6947" stop-color="#c68322" offset="0"/><stop id="stop8131" stop-color="#353032" offset=".5"/><stop id="stop6949" stop-color="#c68322" offset="1"/></radialGradient></defs><path id="path10591" d="m82.047 475.43c-4.1699-5.3351-4.3379-13.129 1.3909-17.57 5.2836-4.0985 13.323-3.1649 17.279 2.342 8.8902 12.379-8.1473 25.278-18.67 15.228zm19.829-17.737c-5.0251-5.682-13.836-6.5316-19.848-1.8915-6.8272 5.2695-7.1096 14.723-1.9474 21.191 0.04055 0.0336 0.08484 0.0545 0.11913 0.10059 0.04235 0.0344 0.05689 0.0855 0.09832 0.135 5.6272 5.4787 14.332 6.4245 20.408 0.99417 5.9155-5.2848 6.4101-14.604 1.1698-20.53" fill="url(#radialGradient10661)"/></svg>
