<?xml version="1.0" encoding="UTF-8" standalone="no"?>
<svg id="svg2" xmlns:rdf="http://www.w3.org/1999/02/22-rdf-syntax-ns#" xmlns="http://www.w3.org/2000/svg" xml:space="preserve" height="565.22" width="614.44" version="1.1" xmlns:cc="http://creativecommons.org/ns#" xmlns:dc="http://purl.org/dc/elements/1.1/" viewBox="0 0 614.43604 565.22131"><metadata id="metadata8"><rdf:RDF><cc:Work rdf:about=""><dc:format>image/svg+xml</dc:format><dc:type rdf:resource="http://purl.org/dc/dcmitype/StillImage"/><dc:title/></cc:Work></rdf:RDF></metadata><defs id="defs6"><clipPath id="clipPath10814" clipPathUnits="userSpaceOnUse"><path id="path10812" d="m6260.5 4639c-12.27-12.27-33.07-12.48-45.32 0-1.58 1.61-2.9 3.34-4.12 5.11-8.16 12.52-6.33 28.87 4.12 40.21 12.85 11.84 32.59 12.72 45.32 0 12.35-12.36 12.34-32.98 0-45.32zm13.43 58.74c-18.58 18.58-47.56 17.29-66.3 0-15.35-16.64-17.95-41.17-5.49-59.52 1.55-2.38 3.38-4.65 5.49-6.78 17.91-18.04 48.4-18.04 66.3 0 17.95 18.1 18.07 48.22 0 66.3z"/></clipPath><radialGradient id="radialGradient10822" cx="0" gradientUnits="userSpaceOnUse" cy="0" r="1" gradientTransform="matrix(46.623 0 0 -46.623 6240.8 4664.6)"><stop id="stop10816" stop-color="#c68322" offset="0"/><stop id="stop10818" stop-color="#353032" offset=".50196"/><stop id="stop10820" stop-color="#c68322" offset="1"/></radialGradient></defs><g id="g10808" transform="matrix(-.13333 0 0 -.13333 914.44 743.54)"><g id="g10810" clip-path="url(#clipPath10814)"><path id="path10824" d="m6260.5 4639c-12.27-12.27-33.07-12.48-45.32 0-1.58 1.61-2.9 3.34-4.12 5.11-8.16 12.52-6.33 28.87 4.12 40.21 12.85 11.84 32.59 12.72 45.32 0 12.35-12.36 12.34-32.98 0-45.32zm13.43 58.74c-18.58 18.58-47.56 17.29-66.3 0-15.35-16.64-17.95-41.17-5.49-59.52 1.55-2.38 3.38-4.65 5.49-6.78 17.91-18.04 48.4-18.04 66.3 0 17.95 18.1 18.07 48.22 0 66.3" fill="url(#radialGradient10822)"/></g></g></svg>
