<?xml version="1.0" encoding="UTF-8" standalone="no"?>
<svg id="svg2" xmlns:rdf="http://www.w3.org/1999/02/22-rdf-syntax-ns#" xmlns="http://www.w3.org/2000/svg" xml:space="preserve" height="565.22" width="614.44" version="1.1" xmlns:cc="http://creativecommons.org/ns#" xmlns:dc="http://purl.org/dc/elements/1.1/" viewBox="0 0 614.43604 565.22131"><metadata id="metadata8"><rdf:RDF><cc:Work rdf:about=""><dc:format>image/svg+xml</dc:format><dc:type rdf:resource="http://purl.org/dc/dcmitype/StillImage"/><dc:title/></cc:Work></rdf:RDF></metadata><defs id="defs6"><clipPath id="clipPath11336" clipPathUnits="userSpaceOnUse"><path id="path11334" d="m6185.7 4749.7c-8.61-15.15-28.56-20.6-43.71-11.99-1.95 1.11-3.7 2.42-5.34 3.8-11.19 9.87-13.56 26.33-6.64 39.9 9.36 14.72 27.97 20.93 43.7 11.99 15.18-8.63 20.61-28.54 11.99-43.7zm14.89-3.85c12.69 22.13 4.74 51.3-17.37 63.99-22.89 13.13-50.31 4.12-63.98-17.37-11.58-22.71-5.56-50.84 17.36-63.98 2.52-1.45 5.15-2.6 7.83-3.47 20.76-7.15 44.93 1.24 56.16 20.83z"/></clipPath><radialGradient id="radialGradient11344" cx="0" gradientUnits="userSpaceOnUse" cy="0" r="1" gradientTransform="matrix(46.653 0 0 -46.653 6160.1 4769.3)"><stop id="stop11338" stop-color="#c68322" offset="0"/><stop id="stop11340" stop-color="#353032" offset=".50196"/><stop id="stop11342" stop-color="#c68322" offset="1"/></radialGradient></defs><g id="g11330" transform="matrix(-.13333 0 0 -.13333 914.44 743.54)"><g id="g11332" clip-path="url(#clipPath11336)"><path id="path11346" d="m6185.7 4749.7c-8.61-15.15-28.56-20.6-43.71-11.99-1.95 1.11-3.7 2.42-5.34 3.8-11.19 9.87-13.56 26.33-6.64 39.9 9.36 14.72 27.97 20.93 43.7 11.99 15.18-8.63 20.61-28.54 11.99-43.7zm14.89-3.85c12.69 22.13 4.74 51.3-17.37 63.99-22.89 13.13-50.31 4.12-63.98-17.37-11.58-22.71-5.56-50.84 17.36-63.98 2.52-1.45 5.15-2.6 7.83-3.47 20.76-7.15 44.93 1.24 56.16 20.83" fill="url(#radialGradient11344)"/></g></g></svg>
