<?xml version="1.0" encoding="UTF-8" standalone="no"?>
<svg id="svg2" xmlns:rdf="http://www.w3.org/1999/02/22-rdf-syntax-ns#" xmlns="http://www.w3.org/2000/svg" xml:space="preserve" height="1600" width="1600" version="1.1" xmlns:cc="http://creativecommons.org/ns#" xmlns:xlink="http://www.w3.org/1999/xlink" viewBox="0 0 1600 1600" xmlns:dc="http://purl.org/dc/elements/1.1/"><metadata id="metadata8"><rdf:RDF><cc:Work rdf:about=""><dc:format>image/svg+xml</dc:format><dc:type rdf:resource="http://purl.org/dc/dcmitype/StillImage"/><dc:title/></cc:Work></rdf:RDF></metadata><defs id="defs6"><radialGradient id="radialGradient10455" gradientUnits="userSpaceOnUse" cy="1336.1" cx="577.89" gradientTransform="matrix(.85773 .51410 -.51041 .85157 313.42 -1035.6)" r="14.58"><stop id="stop6947" stop-color="#c68322" offset="0"/><stop id="stop8131" stop-color="#353032" offset=".5"/><stop id="stop6949" stop-color="#c68322" offset="1"/></radialGradient></defs><path id="path10417" d="m117.43 406.54c-3.6269-5.7181-3.0302-13.491 3.1063-17.349 5.6599-3.5608 13.569-1.8438 16.966 4.0243 7.6341 13.191-10.586 24.358-20.073 13.324zm21.472-15.708c-4.444-6.1472-13.129-7.8563-19.567-3.8278-7.3108 4.575-8.5184 13.955-4.0151 20.898 0.0371 0.0374 0.0791 0.0626 0.1087 0.11178 0.0388 0.0384 0.0482 0.0907 0.0846 0.14399 5.0631 6.0038 13.633 7.7983 20.212 2.9897 6.405-4.6795 7.8107-13.905 3.1764-20.316" fill="url(#radialGradient10455)"/></svg>
