<?xml version="1.0" encoding="UTF-8" standalone="no"?>
<svg id="svg2" xmlns:rdf="http://www.w3.org/1999/02/22-rdf-syntax-ns#" xmlns="http://www.w3.org/2000/svg" xml:space="preserve" height="565.22" width="614.44" version="1.1" xmlns:cc="http://creativecommons.org/ns#" xmlns:dc="http://purl.org/dc/elements/1.1/" viewBox="0 0 614.43604 565.22131"><metadata id="metadata8"><rdf:RDF><cc:Work rdf:about=""><dc:format>image/svg+xml</dc:format><dc:type rdf:resource="http://purl.org/dc/dcmitype/StillImage"/><dc:title/></cc:Work></rdf:RDF></metadata><defs id="defs6"><clipPath id="clipPath11408" clipPathUnits="userSpaceOnUse"><path id="path11406" d="m6084.4 4836.8c-4.38-17.2-17.93-24.08-31.32-23.22-6.2 0.56-12.27 2.65-17.61 5.95-9.77 6.58-16.18 18.15-13.16 33.15 12.42 39.15 72.35 24.25 62.09-15.88zm-16.01 56.65c-26.18 8.14-51.38-7.69-59.36-32.87-5.04-24.98 7.83-50.46 33.55-57.18 2.81-0.74 5.63-1.16 8.44-1.29 21.89-1.45 43.15 12.97 48.75 34.83 6.12 23.89-7.8 49.17-31.38 56.51z"/></clipPath><radialGradient id="radialGradient11416" cx="0" gradientUnits="userSpaceOnUse" cy="0" r="1" gradientTransform="matrix(46.713 0 0 -46.713 6054.6 4848.8)"><stop id="stop11410" stop-color="#c68322" offset="0"/><stop id="stop11412" stop-color="#353032" offset=".50196"/><stop id="stop11414" stop-color="#c68322" offset="1"/></radialGradient></defs><g id="g11402" transform="matrix(-.13333 0 0 -.13333 914.44 743.54)"><g id="g11404" clip-path="url(#clipPath11408)"><path id="path11418" d="m6084.4 4836.8c-4.38-17.2-17.93-24.08-31.32-23.22-6.2 0.56-12.27 2.65-17.61 5.95-9.77 6.58-16.18 18.15-13.16 33.15 12.42 39.15 72.35 24.25 62.09-15.88zm-16.01 56.65c-26.18 8.14-51.38-7.69-59.36-32.87-5.04-24.98 7.83-50.46 33.55-57.18 2.81-0.74 5.63-1.16 8.44-1.29 21.89-1.45 43.15 12.97 48.75 34.83 6.12 23.89-7.8 49.17-31.38 56.51" fill="url(#radialGradient11416)"/></g></g></svg>
