<?xml version="1.0" encoding="UTF-8" standalone="no"?>
<svg id="svg2" xmlns:rdf="http://www.w3.org/1999/02/22-rdf-syntax-ns#" xmlns="http://www.w3.org/2000/svg" xml:space="preserve" height="1600" width="1600" version="1.1" xmlns:cc="http://creativecommons.org/ns#" xmlns:xlink="http://www.w3.org/1999/xlink" viewBox="0 0 1600 1600" xmlns:dc="http://purl.org/dc/elements/1.1/"><metadata id="metadata8"><rdf:RDF><cc:Work rdf:about=""><dc:format>image/svg+xml</dc:format><dc:type rdf:resource="http://purl.org/dc/dcmitype/StillImage"/><dc:title/></cc:Work></rdf:RDF></metadata><defs id="defs6"><radialGradient id="radialGradient10629" gradientUnits="userSpaceOnUse" cy="1336.1" cx="577.89" gradientTransform="matrix(.80321 .59570 -.59142 .79744 495.8 -1074.5)" r="14.58"><stop id="stop6947" stop-color="#c68322" offset="0"/><stop id="stop8131" stop-color="#353032" offset=".5"/><stop id="stop6949" stop-color="#c68322" offset="1"/></radialGradient></defs><path id="path10545" d="m159.4 341.45c-3.049-6.0461-1.6933-13.723 4.7918-16.961 5.9816-2.9889 13.684-0.50491 16.49 5.6679 6.3044 13.875-12.922 23.203-21.282 11.293zm22.908-13.528c-3.82-6.5532-12.296-9.1054-19.097-5.7272-7.724 3.8364-9.8453 13.053-6.0442 20.404 0.0332 0.0408 0.0726 0.07 0.0972 0.1219 0.0348 0.042 0.0391 0.095 0.0701 0.15159 4.4503 6.4712 12.803 9.0971 19.822 4.9564 6.8328-4.0292 9.136-13.073 5.1524-19.907" fill="url(#radialGradient10629)"/></svg>
