<?xml version="1.0" encoding="UTF-8" standalone="no"?>
<svg id="svg2" xmlns:rdf="http://www.w3.org/1999/02/22-rdf-syntax-ns#" xmlns="http://www.w3.org/2000/svg" xml:space="preserve" height="565.22" width="614.44" version="1.1" xmlns:cc="http://creativecommons.org/ns#" xmlns:dc="http://purl.org/dc/elements/1.1/" viewBox="0 0 614.43604 565.22131"><metadata id="metadata8"><rdf:RDF><cc:Work rdf:about=""><dc:format>image/svg+xml</dc:format><dc:type rdf:resource="http://purl.org/dc/dcmitype/StillImage"/><dc:title/></cc:Work></rdf:RDF></metadata><defs id="defs6"><clipPath id="clipPath11480" clipPathUnits="userSpaceOnUse"><path id="path11478" d="m5939.7 4863.6c-6.12-1.09-12.53-0.67-18.55 1.12-11.15 3.77-20.39 13.26-21.41 28.53 1.67 41.04 63.42 42.4 64.08 0.98 0.28-17.75-10.97-27.95-24.12-30.63zm-6.25 81.08c-27.4 0.97-47.52-20.95-48.6-47.33 1.7-25.43 20.84-46.62 47.42-46.33 2.9 0.03 5.74 0.36 8.49 0.98 21.49 4.36 38.2 23.86 37.84 46.44-0.38 24.66-20.45 45.37-45.15 46.24z"/></clipPath><radialGradient id="radialGradient11488" cx="0" gradientUnits="userSpaceOnUse" cy="0" r="1" gradientTransform="matrix(46.863 0 0 -46.863 5931.7 4897.8)"><stop id="stop11482" stop-color="#c68322" offset="0"/><stop id="stop11484" stop-color="#353032" offset=".50196"/><stop id="stop11486" stop-color="#c68322" offset="1"/></radialGradient></defs><g id="g11474" transform="matrix(-.13333 0 0 -.13333 914.44 743.54)"><g id="g11476" clip-path="url(#clipPath11480)"><path id="path11490" d="m5939.7 4863.6c-6.12-1.09-12.53-0.67-18.55 1.12-11.15 3.77-20.39 13.26-21.41 28.53 1.67 41.04 63.42 42.4 64.08 0.98 0.28-17.75-10.97-27.95-24.12-30.63zm-6.25 81.08c-27.4 0.97-47.52-20.95-48.6-47.33 1.7-25.43 20.84-46.62 47.42-46.33 2.9 0.03 5.74 0.36 8.49 0.98 21.49 4.36 38.2 23.86 37.84 46.44-0.38 24.66-20.45 45.37-45.15 46.24" fill="url(#radialGradient11488)"/></g></g></svg>
