<?xml version="1.0" encoding="UTF-8" standalone="no"?>
<svg id="svg2" xmlns:rdf="http://www.w3.org/1999/02/22-rdf-syntax-ns#" xmlns="http://www.w3.org/2000/svg" xml:space="preserve" height="1600" width="1600" version="1.1" xmlns:cc="http://creativecommons.org/ns#" xmlns:xlink="http://www.w3.org/1999/xlink" viewBox="0 0 1600 1600" xmlns:dc="http://purl.org/dc/elements/1.1/"><metadata id="metadata8"><rdf:RDF><cc:Work rdf:about=""><dc:format>image/svg+xml</dc:format><dc:type rdf:resource="http://purl.org/dc/dcmitype/StillImage"/><dc:title/></cc:Work></rdf:RDF></metadata><defs id="defs6"><radialGradient id="radialGradient9957" gradientUnits="userSpaceOnUse" cy="1336.1" cx="577.89" gradientTransform="matrix(.74095 .67156 -.66674 .73563 681.11 -1095.4)" r="14.58"><stop id="stop6947" stop-color="#c68322" offset="0"/><stop id="stop8131" stop-color="#353032" offset=".5"/><stop id="stop6949" stop-color="#c68322" offset="1"/></radialGradient></defs><path id="path9949" d="m207.54 280.79c-2.4416-6.3158-0.34008-13.822 6.4312-16.409 6.2458-2.3882 13.668 0.83883 15.855 7.2569 4.914 14.427-15.134 21.825-22.286 9.1524zm24.124-11.217c-3.1593-6.8961-11.344-10.267-18.444-7.5715-8.0629 3.0608-11.077 12.025-8.015 19.713 0.0291 0.0439 0.0654 0.0768 0.0848 0.13084 0.0305 0.0452 0.0296 0.0984 0.0549 0.15773 3.7946 6.8763 11.85 10.308 19.24 6.8754 7.1949-3.3401 10.373-12.114 7.0788-19.306" fill="url(#radialGradient9957)"/></svg>
