<?xml version="1.0" encoding="UTF-8" standalone="no"?>
<svg id="svg2" xmlns:rdf="http://www.w3.org/1999/02/22-rdf-syntax-ns#" xmlns="http://www.w3.org/2000/svg" xml:space="preserve" height="565.22" width="614.44" version="1.1" xmlns:cc="http://creativecommons.org/ns#" xmlns:dc="http://purl.org/dc/elements/1.1/" viewBox="0 0 614.43604 565.22131"><metadata id="metadata8"><rdf:RDF><cc:Work rdf:about=""><dc:format>image/svg+xml</dc:format><dc:type rdf:resource="http://purl.org/dc/dcmitype/StillImage"/><dc:title/></cc:Work></rdf:RDF></metadata><defs id="defs6"><clipPath id="clipPath11552" clipPathUnits="userSpaceOnUse"><path id="path11550" d="m5817.1 4881.9c-5.61-2.65-11.9-3.93-18.17-3.79-11.76 0.71-23.17 7.44-28.17 21.91-9.18 40.02 50.05 57.56 61.57 17.77 4.94-17.05-3.25-29.85-15.23-35.89zm-27.36 76.59c-26.69-6.28-40.33-32.73-34.42-58.46 8.33-24.09 32.39-39.48 57.95-32.21 2.78 0.79 5.44 1.86 7.93 3.18 19.58 9.86 30.56 33.09 24.28 54.77-6.86 23.69-31.69 38.37-55.74 32.72z"/></clipPath><radialGradient id="radialGradient11560" cx="0" gradientUnits="userSpaceOnUse" cy="0" r="1" gradientTransform="matrix(46.745 0 0 -46.745 5800.6 4912.9)"><stop id="stop11554" stop-color="#c68322" offset="0"/><stop id="stop11556" stop-color="#353032" offset=".50196"/><stop id="stop11558" stop-color="#c68322" offset="1"/></radialGradient></defs><g id="g11546" transform="matrix(-.13333 0 0 -.13333 914.44 743.54)"><g id="g11548" clip-path="url(#clipPath11552)"><path id="path11562" d="m5817.1 4881.9c-5.61-2.65-11.9-3.93-18.17-3.79-11.76 0.71-23.17 7.44-28.17 21.91-9.18 40.02 50.05 57.56 61.57 17.77 4.94-17.05-3.25-29.85-15.23-35.89zm-27.36 76.59c-26.69-6.28-40.33-32.73-34.42-58.46 8.33-24.09 32.39-39.48 57.95-32.21 2.78 0.79 5.44 1.86 7.93 3.18 19.58 9.86 30.56 33.09 24.28 54.77-6.86 23.69-31.69 38.37-55.74 32.72" fill="url(#radialGradient11560)"/></g></g></svg>
