<?xml version="1.0" encoding="UTF-8" standalone="no"?>
<svg id="svg2" xmlns:rdf="http://www.w3.org/1999/02/22-rdf-syntax-ns#" xmlns="http://www.w3.org/2000/svg" xml:space="preserve" height="1600" viewBox="0 0 1600 1600" width="1600" version="1.1" xmlns:cc="http://creativecommons.org/ns#" xmlns:xlink="http://www.w3.org/1999/xlink" xmlns:dc="http://purl.org/dc/elements/1.1/"><metadata id="metadata8"><rdf:RDF><cc:Work rdf:about=""><dc:format>image/svg+xml</dc:format><dc:type rdf:resource="http://purl.org/dc/dcmitype/StillImage"/><dc:title/></cc:Work></rdf:RDF></metadata><defs id="defs6"><radialGradient id="radialGradient10463" gradientUnits="userSpaceOnUse" cy="1336.1" cx="577.89" gradientTransform="matrix(.5957 .80321 -.79744 .59142 1053.4 -1082.3)" r="14.58"><stop id="stop6947" stop-color="#c68322" offset="0"/><stop id="stop8131" stop-color="#353032" offset=".5"/><stop id="stop6949" stop-color="#c68322" offset="1"/></radialGradient></defs><path id="path10429" fill="url(#radialGradient10463)" d="m320.45 175.03c-1.1626-6.6708 2.3631-13.623 9.5089-14.839 6.5917-1.1238 13.242 3.4892 14.135 10.211 2.0051 15.108-19.101 18.453-23.644 4.6286zm25.849-6.2955c-1.7532-7.3799-9.123-12.283-16.612-11.024-8.5051 1.429-13.211 9.6332-11.707 17.771 0.0199 0.0487 0.0491 0.0881 0.0576 0.14487 0.0211 0.0503 0.01 0.10225 0.0231 0.1654 2.3802 7.4844 9.6111 12.422 17.529 10.497 7.7082-1.8722 12.538-9.858 10.709-17.554"/></svg>
