<?xml version="1.0" encoding="UTF-8" standalone="no"?>
<svg id="svg2" xmlns:rdf="http://www.w3.org/1999/02/22-rdf-syntax-ns#" xmlns="http://www.w3.org/2000/svg" xml:space="preserve" height="1600" width="1600" version="1.1" xmlns:cc="http://creativecommons.org/ns#" xmlns:xlink="http://www.w3.org/1999/xlink" viewBox="0 0 1600 1600" xmlns:dc="http://purl.org/dc/elements/1.1/"><metadata id="metadata8"><rdf:RDF><cc:Work rdf:about=""><dc:format>image/svg+xml</dc:format><dc:type rdf:resource="http://purl.org/dc/dcmitype/StillImage"/><dc:title/></cc:Work></rdf:RDF></metadata><defs id="defs6"><radialGradient id="radialGradient9999" gradientUnits="userSpaceOnUse" cy="1336.1" cx="577.89" gradientTransform="matrix(.42756 .90399 -.89750 .42449 1416 -996.87)" r="14.58"><stop id="stop6947" stop-color="#c68322" offset="0"/><stop id="stop8131" stop-color="#353032" offset=".5"/><stop id="stop6949" stop-color="#c68322" offset="1"/></radialGradient></defs><path id="path9981" d="m451.82 93.333c0.16116-6.7694 4.9754-12.9 12.221-12.699 6.6843 0.18372 12.307 6.0055 11.871 12.772-0.98084 15.209-22.334 14.372-24.092-0.07292zm26.58-1.1317c-0.2798-7.5801-6.5515-13.826-14.142-14.053-8.6204-0.25773-14.836 6.8709-14.949 15.146 0.0101 0.05166 0.031 0.09596 0.0283 0.15333 0.0109 0.05347-0.0103 0.10221-0.01 0.16673 0.87429 7.805 7.003 14.058 15.145 13.715 7.9254-0.33245 14.22-7.2226 13.928-15.127" fill="url(#radialGradient9999)"/></svg>
