<?xml version="1.0" encoding="UTF-8" standalone="no"?>
<svg id="svg2" xmlns:rdf="http://www.w3.org/1999/02/22-rdf-syntax-ns#" xmlns="http://www.w3.org/2000/svg" xml:space="preserve" height="565.22" width="614.44" version="1.1" xmlns:cc="http://creativecommons.org/ns#" xmlns:dc="http://purl.org/dc/elements/1.1/" viewBox="0 0 614.43604 565.22131"><metadata id="metadata8"><rdf:RDF><cc:Work rdf:about=""><dc:format>image/svg+xml</dc:format><dc:type rdf:resource="http://purl.org/dc/dcmitype/StillImage"/><dc:title/></cc:Work></rdf:RDF></metadata><defs id="defs6"><clipPath id="clipPath11282" clipPathUnits="userSpaceOnUse"><path id="path11280" d="m6173.7 2120.5c-15.7-8.92-34.35-2.71-43.7 11.99-6.93 13.59-4.57 30.03 6.64 39.9 1.64 1.38 3.38 2.69 5.34 3.81 15.17 8.61 35.08 3.18 43.71-12 8.6-15.13 3.17-35.08-11.99-43.7zm-29.28 68.39c-2.68-0.87-5.31-2.02-7.83-3.47-22.92-13.16-28.95-41.27-17.36-63.99 13.68-21.49 41.09-30.49 63.98-17.36 22.11 12.67 30.05 41.86 17.37 63.98-11.23 19.59-35.4 27.99-56.16 20.84z"/></clipPath><radialGradient id="radialGradient11290" cx="0" gradientUnits="userSpaceOnUse" cy="0" r="1" gradientTransform="matrix(46.653 0 0 -46.653 6160.1 2144.7)"><stop id="stop11284" stop-color="#c68322" offset="0"/><stop id="stop11286" stop-color="#353032" offset=".50196"/><stop id="stop11288" stop-color="#c68322" offset="1"/></radialGradient></defs><g id="g11276" transform="matrix(-.13333 0 0 -.13333 914.44 743.54)"><g id="g11278" clip-path="url(#clipPath11282)"><path id="path11292" d="m6173.7 2120.5c-15.7-8.92-34.35-2.71-43.7 11.99-6.93 13.59-4.57 30.03 6.64 39.9 1.64 1.38 3.38 2.69 5.34 3.81 15.17 8.61 35.08 3.18 43.71-12 8.6-15.13 3.17-35.08-11.99-43.7zm-29.28 68.39c-2.68-0.87-5.31-2.02-7.83-3.47-22.92-13.16-28.95-41.27-17.36-63.99 13.68-21.49 41.09-30.49 63.98-17.36 22.11 12.67 30.05 41.86 17.37 63.98-11.23 19.59-35.4 27.99-56.16 20.84" fill="url(#radialGradient11290)"/></g></g></svg>
