<?xml version="1.0" encoding="UTF-8" standalone="no"?>
<svg id="svg2" xmlns:rdf="http://www.w3.org/1999/02/22-rdf-syntax-ns#" xmlns="http://www.w3.org/2000/svg" xml:space="preserve" height="1600" width="1600" version="1.1" xmlns:cc="http://creativecommons.org/ns#" xmlns:xlink="http://www.w3.org/1999/xlink" viewBox="0 0 1600 1600" xmlns:dc="http://purl.org/dc/elements/1.1/"><metadata id="metadata8"><rdf:RDF><cc:Work rdf:about=""><dc:format>image/svg+xml</dc:format><dc:type rdf:resource="http://purl.org/dc/dcmitype/StillImage"/><dc:title/></cc:Work></rdf:RDF></metadata><defs id="defs6"><radialGradient id="radialGradient10003" gradientUnits="userSpaceOnUse" cy="1336.1" cx="577.89" gradientTransform="matrix(.94154 .33689 -.33447 .93479 437.74 95.459)" r="14.58"><stop id="stop6947" stop-color="#c68322" offset="0"/><stop id="stop8131" stop-color="#353032" offset=".5"/><stop id="stop6949" stop-color="#c68322" offset="1"/></radialGradient></defs><path id="path9987" d="m526.86 1548.1c-4.6728-4.9007-5.6038-12.64-0.33791-17.621 4.8564-4.5966 12.949-4.4555 17.425 0.637 10.061 11.448-5.6304 25.955-17.087 16.984zm17.995-19.595c-5.5578-5.1622-14.409-5.1441-19.937 0.063-6.2778 5.9133-5.6322 15.349 0.13908 21.28 0.0436 0.029 0.0898 0.046 0.12842 0.088 0.0455 0.03 0.065 0.08 0.11108 0.1247 6.1372 4.9007 14.893 4.9888 20.407-1.0109 5.369-5.8392 4.9478-15.162-0.84807-20.545" fill="url(#radialGradient10003)"/></svg>
