<?xml version="1.0" encoding="UTF-8" standalone="no"?>
<svg id="svg2" xmlns:rdf="http://www.w3.org/1999/02/22-rdf-syntax-ns#" xmlns="http://www.w3.org/2000/svg" xml:space="preserve" height="1600" width="1600" version="1.1" xmlns:cc="http://creativecommons.org/ns#" xmlns:xlink="http://www.w3.org/1999/xlink" viewBox="0 0 1600 1600" xmlns:dc="http://purl.org/dc/elements/1.1/"><metadata id="metadata8"><rdf:RDF><cc:Work rdf:about=""><dc:format>image/svg+xml</dc:format><dc:type rdf:resource="http://purl.org/dc/dcmitype/StillImage"/><dc:title/></cc:Work></rdf:RDF></metadata><defs id="defs6"><radialGradient id="radialGradient10621" gradientUnits="userSpaceOnUse" cy="1336.1" cx="577.89" gradientTransform="matrix(.14673 .98918 -.98208 .14568 1911.4 -740.89)" r="14.58"><stop id="stop6947" stop-color="#c68322" offset="0"/><stop id="stop8131" stop-color="#353032" offset=".5"/><stop id="stop6949" stop-color="#c68322" offset="1"/></radialGradient></defs><path id="path10535" d="m672.31 22.482c2.1193-6.4312 8.506-10.901 15.381-8.6046 6.3432 2.1162 10.033 9.3193 7.6524 15.668-5.3535 14.269-25.544 7.2695-23.034-7.0634zm25.764 6.6328c1.9327-7.335-2.2559-15.133-9.454-17.554-8.1744-2.749-16.192 2.2684-18.702 10.154-0.005 0.05236 0.002 0.10082-0.0175 0.15494-0.005 0.05433-0.0395 0.09482-0.0576 0.15675-1.429 7.7227 2.6206 15.486 10.511 17.521 7.6806 1.9825 15.704-2.7838 17.72-10.433" fill="url(#radialGradient10621)"/></svg>
