<?xml version="1.0" encoding="UTF-8" standalone="no"?>
<svg id="svg2" xmlns:rdf="http://www.w3.org/1999/02/22-rdf-syntax-ns#" xmlns="http://www.w3.org/2000/svg" xml:space="preserve" height="565.22" width="614.44" version="1.1" xmlns:cc="http://creativecommons.org/ns#" xmlns:dc="http://purl.org/dc/elements/1.1/" viewBox="0 0 614.43604 565.22131"><metadata id="metadata8"><rdf:RDF><cc:Work rdf:about=""><dc:format>image/svg+xml</dc:format><dc:type rdf:resource="http://purl.org/dc/dcmitype/StillImage"/><dc:title/></cc:Work></rdf:RDF></metadata><defs id="defs6"><clipPath id="clipPath10760" clipPathUnits="userSpaceOnUse"><path id="path10758" d="m6260.5 2229.6c-12.85-12.63-32.37-11.94-45.32 0-11.85 12.84-12.72 32.59 0 45.32 1.55 1.54 3.24 2.85 4.99 4.05 12.39 8.1 29.53 6.75 40.33-4.05 12.26-12.27 12.47-33.07 0-45.32zm-52.87 52.87c-18.58-18.58-17.29-47.56 0-66.3 18.79-17.33 47.65-18.5 66.3 0 18.04 17.91 18.04 48.39 0 66.3-18.1 17.96-48.23 18.08-66.3 0z"/></clipPath><radialGradient id="radialGradient10768" cx="0" gradientUnits="userSpaceOnUse" cy="0" r="1" gradientTransform="matrix(46.634 0 0 -46.634 6240.8 2249.4)"><stop id="stop10762" stop-color="#c68322" offset="0"/><stop id="stop10764" stop-color="#353032" offset=".50196"/><stop id="stop10766" stop-color="#c68322" offset="1"/></radialGradient></defs><g id="g10754" transform="matrix(-.13333 0 0 -.13333 914.44 743.54)"><g id="g10756" clip-path="url(#clipPath10760)"><path id="path10770" d="m6260.5 2229.6c-12.85-12.63-32.37-11.94-45.32 0-11.85 12.84-12.72 32.59 0 45.32 1.55 1.54 3.24 2.85 4.99 4.05 12.39 8.1 29.53 6.75 40.33-4.05 12.26-12.27 12.47-33.07 0-45.32zm-52.87 52.87c-18.58-18.58-17.29-47.56 0-66.3 18.79-17.33 47.65-18.5 66.3 0 18.04 17.91 18.04 48.39 0 66.3-18.1 17.96-48.23 18.08-66.3 0" fill="url(#radialGradient10768)"/></g></g></svg>
