<?xml version="1.0" encoding="UTF-8" standalone="no"?>
<svg id="svg2" xmlns:rdf="http://www.w3.org/1999/02/22-rdf-syntax-ns#" xmlns="http://www.w3.org/2000/svg" xml:space="preserve" height="565.22" width="614.44" version="1.1" xmlns:cc="http://creativecommons.org/ns#" xmlns:dc="http://purl.org/dc/elements/1.1/" viewBox="0 0 614.43604 565.22131"><metadata id="metadata8"><rdf:RDF><cc:Work rdf:about=""><dc:format>image/svg+xml</dc:format><dc:type rdf:resource="http://purl.org/dc/dcmitype/StillImage"/><dc:title/></cc:Work></rdf:RDF></metadata><defs id="defs6"><clipPath id="clipPath10796" clipPathUnits="userSpaceOnUse"><path id="path10794" d="m6287.8 2340.8c-17.75 0-27.77 11.39-30.25 24.56-1 6.12-0.48 12.52 1.4 18.5 3.94 11.1 13.56 20.21 28.85 21.03 41.03-2.21 41.41-64.09 0-64.09zm4.15 78.93c-25.43-1.37-46.87-20.34-46.87-46.88 0-25.42 21.39-47 46.87-46.88 24.68 0.11 45.6 19.92 46.76 44.61 1.3 27.42-20.39 47.73-46.76 49.15z"/></clipPath><radialGradient id="radialGradient10804" cx="0" gradientUnits="userSpaceOnUse" cy="0" r="1" gradientTransform="matrix(46.862 0 0 -46.862 6291.9 2372.8)"><stop id="stop10798" stop-color="#c68322" offset="0"/><stop id="stop10800" stop-color="#353032" offset=".50196"/><stop id="stop10802" stop-color="#c68322" offset="1"/></radialGradient></defs><g id="g10790" transform="matrix(-.13333 0 0 -.13333 914.44 743.54)"><g id="g10792" clip-path="url(#clipPath10796)"><path id="path10806" d="m6287.8 2340.8c-17.75 0-27.77 11.39-30.25 24.56-1 6.12-0.48 12.52 1.4 18.5 3.94 11.1 13.56 20.21 28.85 21.03 41.03-2.21 41.41-64.09 0-64.09zm4.15 78.93c-25.43-1.37-46.87-20.34-46.87-46.88 0-25.42 21.39-47 46.87-46.88 24.68 0.11 45.6 19.92 46.76 44.61 1.3 27.42-20.39 47.73-46.76 49.15" fill="url(#radialGradient10804)"/></g></g></svg>
