<?xml version="1.0" encoding="UTF-8" standalone="no"?>
<svg id="svg2" xmlns:rdf="http://www.w3.org/1999/02/22-rdf-syntax-ns#" xmlns="http://www.w3.org/2000/svg" xml:space="preserve" height="565.22" width="614.44" version="1.1" xmlns:cc="http://creativecommons.org/ns#" xmlns:dc="http://purl.org/dc/elements/1.1/" viewBox="0 0 614.43604 565.22131"><metadata id="metadata8"><rdf:RDF><cc:Work rdf:about=""><dc:format>image/svg+xml</dc:format><dc:type rdf:resource="http://purl.org/dc/dcmitype/StillImage"/><dc:title/></cc:Work></rdf:RDF></metadata><defs id="defs6"><clipPath id="clipPath11318" clipPathUnits="userSpaceOnUse"><path id="path11316" d="m6313.1 2471.9c-17.13-4.66-29.79 3.7-35.65 15.75-2.57 5.64-3.74 11.95-3.5 18.21 0.88 11.75 7.78 23.07 22.32 27.88 40.15 8.66 56.78-50.95 16.83-61.84zm-16.76 77.24c-24.18-8.01-39.87-31.97-32.88-57.57 0.76-2.79 1.8-5.45 3.08-7.96 9.65-19.69 32.73-30.96 54.5-24.92 23.77 6.6 38.72 31.23 33.35 55.36-5.96 26.79-32.25 40.65-58.05 35.09z"/></clipPath><radialGradient id="radialGradient11326" cx="0" gradientUnits="userSpaceOnUse" cy="0" r="1" gradientTransform="matrix(46.749 0 0 -46.749 6308.6 2503.7)"><stop id="stop11320" stop-color="#c68322" offset="0"/><stop id="stop11322" stop-color="#353032" offset=".50196"/><stop id="stop11324" stop-color="#c68322" offset="1"/></radialGradient></defs><g id="g11312" transform="matrix(-.13333 0 0 -.13333 914.44 743.54)"><g id="g11314" clip-path="url(#clipPath11318)"><path id="path11328" d="m6313.1 2471.9c-17.13-4.66-29.79 3.7-35.65 15.75-2.57 5.64-3.74 11.95-3.5 18.21 0.88 11.75 7.78 23.07 22.32 27.88 40.15 8.66 56.78-50.95 16.83-61.84zm-16.76 77.24c-24.18-8.01-39.87-31.97-32.88-57.57 0.76-2.79 1.8-5.45 3.08-7.96 9.65-19.69 32.73-30.96 54.5-24.92 23.77 6.6 38.72 31.23 33.35 55.36-5.96 26.79-32.25 40.65-58.05 35.09" fill="url(#radialGradient11326)"/></g></g></svg>
