<?xml version="1.0" encoding="UTF-8" standalone="no"?>
<svg id="svg2" xmlns:rdf="http://www.w3.org/1999/02/22-rdf-syntax-ns#" xmlns="http://www.w3.org/2000/svg" xml:space="preserve" height="565.22" width="614.44" version="1.1" xmlns:cc="http://creativecommons.org/ns#" xmlns:dc="http://purl.org/dc/elements/1.1/" viewBox="0 0 614.43604 565.22131"><metadata id="metadata8"><rdf:RDF><cc:Work rdf:about=""><dc:format>image/svg+xml</dc:format><dc:type rdf:resource="http://purl.org/dc/dcmitype/StillImage"/><dc:title/></cc:Work></rdf:RDF></metadata><defs id="defs6"><clipPath id="clipPath11390" clipPathUnits="userSpaceOnUse"><path id="path11388" d="m6259.2 2616.4c-1.14 1.94-2 3.95-2.74 5.96-4.81 14.13 1.31 29.57 14.07 37.92 15.43 8.13 34.68 4.25 43.87-11.32 8.87-15.03 3.71-35.01-11.31-43.88-15.01-8.85-35.03-3.68-43.89 11.32zm54.96-22.02c21.98 12.94 29.55 42.21 16.62 64.19-13.38 22.75-41.63 28.5-64.18 16.63-21.32-13.97-30.02-41.42-16.62-64.19 12.93-21.97 42.21-29.55 64.18-16.63z"/></clipPath><radialGradient id="radialGradient11398" cx="0" gradientUnits="userSpaceOnUse" cy="0" r="1" gradientTransform="matrix(46.666 0 0 -46.666 6290.4 2634.6)"><stop id="stop11392" stop-color="#c68322" offset="0"/><stop id="stop11394" stop-color="#353032" offset=".50196"/><stop id="stop11396" stop-color="#c68322" offset="1"/></radialGradient></defs><g id="g11384" transform="matrix(-.13333 0 0 -.13333 914.44 743.54)"><g id="g11386" clip-path="url(#clipPath11390)"><path id="path11400" d="m6259.2 2616.4c-1.14 1.94-2 3.95-2.74 5.96-4.81 14.13 1.31 29.57 14.07 37.92 15.43 8.13 34.68 4.25 43.87-11.32 8.87-15.03 3.71-35.01-11.31-43.88-15.01-8.85-35.03-3.68-43.89 11.32zm54.96-22.02c21.98 12.94 29.55 42.21 16.62 64.19-13.38 22.75-41.63 28.5-64.18 16.63-21.32-13.97-30.02-41.42-16.62-64.19 12.93-21.97 42.21-29.55 64.18-16.63" fill="url(#radialGradient11398)"/></g></g></svg>
