<?xml version="1.0" encoding="UTF-8" standalone="no"?>
<svg id="svg2" xmlns:rdf="http://www.w3.org/1999/02/22-rdf-syntax-ns#" xmlns="http://www.w3.org/2000/svg" xml:space="preserve" height="1600" width="1600" version="1.1" xmlns:cc="http://creativecommons.org/ns#" xmlns:xlink="http://www.w3.org/1999/xlink" viewBox="0 0 1600 1600" xmlns:dc="http://purl.org/dc/elements/1.1/"><metadata id="metadata8"><rdf:RDF><cc:Work rdf:about=""><dc:format>image/svg+xml</dc:format><dc:type rdf:resource="http://purl.org/dc/dcmitype/StillImage"/><dc:title/></cc:Work></rdf:RDF></metadata><defs id="defs6"><radialGradient id="radialGradient10665" gradientUnits="userSpaceOnUse" cy="1336.1" cx="577.89" gradientTransform="matrix(.67156 .74095 -.73563 .66674 813.26 7.5989)" r="14.58"><stop id="stop6947" stop-color="#c68322" offset="0"/><stop id="stop8131" stop-color="#353032" offset=".5"/><stop id="stop6949" stop-color="#c68322" offset="1"/></radialGradient></defs><path id="path10599" d="m207.08 1330.7c-1.8108-6.5247 1.0164-13.789 8.0086-15.7 6.4498-1.7645 13.52 2.1745 15.067 8.7761 3.4763 14.839-17.201 20.236-23.076 6.9238zm25.107-8.7987c-2.4682-7.1726-10.283-11.329-17.613-9.3429-8.3241 2.2558-12.203 10.882-9.9087 18.833 0.0246 0.047 0.0575 0.083 0.0716 0.1386 0.026 0.048 0.0198 0.1008 0.0392 0.1623 3.1023 7.2151 10.782 11.42 18.474 8.7282 7.4876-2.6188 11.511-11.039 8.9371-18.519" fill="url(#radialGradient10665)"/></svg>
