<?xml version="1.0" encoding="UTF-8" standalone="no"?>
<svg id="svg2" xmlns:rdf="http://www.w3.org/1999/02/22-rdf-syntax-ns#" xmlns="http://www.w3.org/2000/svg" xml:space="preserve" height="565.22" width="614.44" version="1.1" xmlns:cc="http://creativecommons.org/ns#" xmlns:dc="http://purl.org/dc/elements/1.1/" viewBox="0 0 614.43604 565.22131"><metadata id="metadata8"><rdf:RDF><cc:Work rdf:about=""><dc:format>image/svg+xml</dc:format><dc:type rdf:resource="http://purl.org/dc/dcmitype/StillImage"/><dc:title/></cc:Work></rdf:RDF></metadata><defs id="defs6"><clipPath id="clipPath11426" clipPathUnits="userSpaceOnUse"><path id="path11424" d="m6258.4 2731c-12.11-12.43-32.86-12.97-45.31-0.69-1.62 1.58-2.96 3.29-4.2 5.05-8.35 12.39-6.78 28.82 3.5 40.27 12.67 11.99 32.41 13.25 45.32 0.69 12.5-12.17 12.88-32.79 0.69-45.32zm12.65 58.82c-18.84 18.28-47.72 16.81-66.28-0.77-17.04-18.94-18.06-47.94 0.76-66.29 2.08-2.02 4.32-3.79 6.7-5.3 18.29-12.1 43.87-10.17 59.6 6.07 17.68 18.26 17.58 48.49-0.78 66.29z"/></clipPath><radialGradient id="radialGradient11434" cx="0" gradientUnits="userSpaceOnUse" cy="0" r="1" gradientTransform="matrix(46.624 0 0 -46.624 6238.3 2756.3)"><stop id="stop11428" stop-color="#c68322" offset="0"/><stop id="stop11430" stop-color="#353032" offset=".50196"/><stop id="stop11432" stop-color="#c68322" offset="1"/></radialGradient></defs><g id="g11420" transform="matrix(-.13333 0 0 -.13333 914.44 743.54)"><g id="g11422" clip-path="url(#clipPath11426)"><path id="path11436" d="m6258.4 2731c-12.11-12.43-32.86-12.97-45.31-0.69-1.62 1.58-2.96 3.29-4.2 5.05-8.35 12.39-6.78 28.82 3.5 40.27 12.67 11.99 32.41 13.25 45.32 0.69 12.5-12.17 12.88-32.79 0.69-45.32zm12.65 58.82c-18.84 18.28-47.72 16.81-66.28-0.77-17.04-18.94-18.06-47.94 0.76-66.29 2.08-2.02 4.32-3.79 6.7-5.3 18.29-12.1 43.87-10.17 59.6 6.07 17.68 18.26 17.58 48.49-0.78 66.29" fill="url(#radialGradient11434)"/></g></g></svg>
