<?xml version="1.0" encoding="UTF-8" standalone="no"?>
<svg id="svg2" xmlns:rdf="http://www.w3.org/1999/02/22-rdf-syntax-ns#" xmlns="http://www.w3.org/2000/svg" xml:space="preserve" height="565.22" width="614.44" version="1.1" xmlns:cc="http://creativecommons.org/ns#" xmlns:dc="http://purl.org/dc/elements/1.1/" viewBox="0 0 614.43604 565.22131"><metadata id="metadata8"><rdf:RDF><cc:Work rdf:about=""><dc:format>image/svg+xml</dc:format><dc:type rdf:resource="http://purl.org/dc/dcmitype/StillImage"/><dc:title/></cc:Work></rdf:RDF></metadata><defs id="defs6"><clipPath id="clipPath11534" clipPathUnits="userSpaceOnUse"><path id="path11532" d="m6182.2 2840.7c-20-36.31-74.34-5.92-56.17 30.86 9.11 14.74 27.72 21.51 43.51 12.66 15.22-8.53 21.13-28.14 12.66-43.52zm-3.23 60.01c-23.04 12.83-50.39 3.57-63.78-18.11-11.34-22.95-4.92-50.78 18.1-63.78 2.54-1.44 5.19-2.57 7.87-3.42 20.84-6.96 44.86 1.95 55.91 21.53 12.54 22.19 4.06 51.42-18.1 63.78z"/></clipPath><radialGradient id="radialGradient11542" cx="0" gradientUnits="userSpaceOnUse" cy="0" r="1" gradientTransform="matrix(46.669 0 0 -46.669 6156.3 2859.8)"><stop id="stop11536" stop-color="#c68322" offset="0"/><stop id="stop11538" stop-color="#353032" offset=".50196"/><stop id="stop11540" stop-color="#c68322" offset="1"/></radialGradient></defs><g id="g11528" transform="matrix(-.13333 0 0 -.13333 914.44 743.54)"><g id="g11530" clip-path="url(#clipPath11534)"><path id="path11544" d="m6182.2 2840.7c-20-36.31-74.34-5.92-56.17 30.86 9.11 14.74 27.72 21.51 43.51 12.66 15.22-8.53 21.13-28.14 12.66-43.52zm-3.23 60.01c-23.04 12.83-50.39 3.57-63.78-18.11-11.34-22.95-4.92-50.78 18.1-63.78 2.54-1.44 5.19-2.57 7.87-3.42 20.84-6.96 44.86 1.95 55.91 21.53 12.54 22.19 4.06 51.42-18.1 63.78" fill="url(#radialGradient11542)"/></g></g></svg>
